<svg width="101" height="51" viewBox="0 0 101 51" fill="none" xmlns="http://www.w3.org/2000/svg">
<g clip-path="url(#clip0_7146_4552)">
<path d="M10.8859 41.992V48.036H8.72404V46.7417C8.43004 47.6098 7.78287 48.1392 6.40054 48.1392C3.9302 48.1392 2.2832 46.2568 2.2832 42.889C2.2832 39.5212 3.98887 37.713 6.7387 37.713C9.01804 37.713 10.562 38.8892 10.856 41.1097H8.1797C8.03237 40.1978 7.57687 39.9037 6.73854 39.9037C5.56204 39.9037 4.9592 40.7422 4.9592 42.889C4.9592 45.0217 5.50337 45.9478 6.67987 45.9478C7.60604 45.9478 8.15037 45.4185 8.28254 44.1833H6.54754V41.992H10.8859Z" fill="#B7B8BA"/>
<path d="M16.5774 46.08H19.4889V48.036H12.6504V46.08H14.2387V42.492H12.6504V40.536H16.5774V41.9184C17.1361 40.9035 18.2244 40.3594 20.3271 40.3594V42.7422C16.6067 42.4919 16.5774 43.433 16.5774 45.3447V46.08Z" fill="#B7B8BA"/>
<path d="M30.1017 44.2564C30.1017 46.6392 28.3667 48.2127 26.0287 48.2127C23.6902 48.2127 21.9551 46.6394 21.9551 44.2564C21.9551 41.9184 23.6901 40.3594 26.0287 40.3594C28.3666 40.3594 30.1017 41.9184 30.1017 44.2564ZM24.3081 44.2564C24.3081 45.4627 24.9989 46.2567 26.0137 46.2567C27.0429 46.2567 27.7344 45.4629 27.7344 44.2564C27.7344 43.0949 27.0429 42.3154 26.0137 42.3154C24.9989 42.3154 24.3081 43.0949 24.3081 44.2564Z" fill="#B7B8BA"/>
<path d="M39.4525 48.0359H37.1145V46.9181C36.6438 47.8156 35.8206 48.2124 34.688 48.2124C32.938 48.2124 31.9531 47.0066 31.9531 45.2272V40.5359H34.2911V44.6096C34.2911 45.5801 34.806 46.1242 35.5413 46.1242C36.4381 46.1242 37.1146 45.5507 37.1146 44.3006V40.5359H39.4526V48.0359H39.4525Z" fill="#B7B8BA"/>
<path d="M49.5694 44.3157C49.5694 46.6537 48.1576 48.2127 46.1431 48.2127C45.3049 48.2127 44.4517 47.948 43.8782 47.1979H43.8639V50.536H41.5254V40.536H43.8639V41.4922H43.8932C44.4519 40.727 45.2164 40.3594 46.1869 40.3594C48.1282 40.3594 49.5694 41.9627 49.5694 44.3157ZM47.2016 44.3007C47.2016 43.0949 46.5251 42.3154 45.5107 42.3154C44.4809 42.3154 43.7901 43.0949 43.7901 44.2714V44.3744C43.8044 45.5065 44.4809 46.2567 45.5107 46.2567C46.5399 46.2567 47.2016 45.4772 47.2016 44.3007Z" fill="#B7B8BA"/>
<path d="M5.37266 22.7273V24.7422H10.4605V26.9478H5.37266V30.536H2.79883V20.536H10.7988V22.7273H5.37266Z" fill="#B7B8BA"/>
<path d="M20.4162 26.7563C20.4162 29.1391 18.6812 30.7126 16.3432 30.7126C14.0047 30.7126 12.2695 29.1393 12.2695 26.7563C12.2695 24.4183 14.0045 22.8593 16.3432 22.8593C18.681 22.8593 20.4162 24.4183 20.4162 26.7563ZM14.6225 26.7563C14.6225 27.9626 15.3134 28.7566 16.3282 28.7566C17.3574 28.7566 18.0489 27.9628 18.0489 26.7563C18.0489 25.5948 17.3574 24.8153 16.3282 24.8153C15.3134 24.8153 14.6225 25.5948 14.6225 26.7563Z" fill="#B7B8BA"/>
<path d="M29.7669 30.5361H27.4289V29.4183C26.9582 30.3158 26.1351 30.7126 25.0024 30.7126C23.2524 30.7126 22.2676 29.5068 22.2676 27.7275V23.0361H24.6056V27.1098C24.6056 28.0803 25.1204 28.6245 25.8557 28.6245C26.7526 28.6245 27.4291 28.051 27.4291 26.8008V23.0361H29.7671V30.5361H29.7669Z" fill="#B7B8BA"/>
<path d="M39.4863 25.8452V30.536H37.1478V26.4623C37.1478 25.4918 36.633 24.9477 35.8977 24.9477C35.0008 24.9477 34.3243 25.5212 34.3243 26.7713V30.536H31.9863V23.036H34.3243V24.1538C34.795 23.257 35.6187 22.8595 36.7508 22.8595C38.501 22.8593 39.4863 24.0652 39.4863 25.8452Z" fill="#B7B8BA"/>
<path d="M41.248 26.7563C41.248 24.4183 42.6599 22.8593 44.675 22.8593C45.5132 22.8593 46.3657 23.124 46.9394 23.8742H46.9544V20.536H49.2924V30.536H46.9544V29.5798H46.925C46.3659 30.345 45.6014 30.7127 44.6309 30.7127C42.6897 30.7127 41.248 29.1093 41.248 26.7563ZM43.6159 26.7713C43.6159 27.9772 44.2924 28.7567 45.3072 28.7567C46.3364 28.7567 47.0279 27.9772 47.0279 26.8007V26.6977C47.0129 25.5655 46.3364 24.8153 45.3072 24.8153C44.2775 24.8153 43.6159 25.5948 43.6159 26.7713Z" fill="#B7B8BA"/>
<path d="M51.082 26.8005C51.082 24.5211 52.6997 22.8591 55.17 22.8591C57.6409 22.8591 59.0377 24.5505 59.0377 27.0063V27.359H53.538V27.374C53.626 28.3151 54.2289 28.8445 55.1557 28.8445C55.8909 28.8445 56.3615 28.5505 56.5969 28.1386H58.9792C58.5235 29.4916 57.4352 30.7125 55.2882 30.7125C52.6847 30.7125 51.082 29.0798 51.082 26.8005ZM56.6704 26.036C56.5817 25.1685 56.0382 24.6241 55.1557 24.6241C54.3025 24.6241 53.7145 25.1683 53.5674 26.036H56.6704Z" fill="#B7B8BA"/>
<path d="M65.0247 28.5798H67.9362V30.5358H61.0977V28.5798H62.686V24.9918H61.0977V23.0358H65.0245V24.4181C65.5832 23.4033 66.6715 22.8591 68.7742 22.8591V25.242C65.0538 24.9916 65.0245 25.9328 65.0245 27.8445V28.5798H65.0247Z" fill="#B7B8BA"/>
<path d="M74.5081 24.5357C73.7136 24.5357 73.1845 24.7715 73.1845 25.2272C73.1845 25.639 73.6258 25.7272 74.2436 25.8152L75.9786 26.0362C77.1551 26.1835 78.3023 26.7864 78.3023 28.1982C78.3023 29.7567 76.8905 30.6834 74.6256 30.6834C72.1553 30.6834 70.7436 29.5949 70.6406 27.9035H72.9643C73.023 28.58 73.6551 28.9477 74.6551 28.9477C75.5083 28.9477 75.9788 28.698 75.9788 28.2862C75.9788 28.0215 75.7878 27.8007 75.1256 27.7275L73.4786 27.5215C71.9788 27.3299 70.8611 26.742 70.8611 25.3154C70.8611 23.7714 72.2143 22.8894 74.3905 22.8894C76.6555 22.8894 78.0815 23.8449 78.2288 25.404H75.92C75.802 24.7567 75.1555 24.5357 74.5081 24.5357Z" fill="#B7B8BA"/>
<path d="M10.9045 10.271C10.9045 11.9773 9.56631 13.036 7.68398 13.036H2.75781V3.03601H7.41931C9.25731 3.03601 10.6398 3.99234 10.6398 5.62434C10.6398 6.84518 9.84598 7.50668 8.55148 7.85934C9.99265 8.15401 10.9045 8.85918 10.9045 10.271ZM5.33098 6.97751H6.71331C7.62515 6.97751 8.11015 6.69784 8.11015 6.03634C8.11015 5.38918 7.65448 5.09518 6.77198 5.09518H5.33081V6.97751H5.33098ZM8.36048 9.91834C8.36048 9.22684 7.87498 8.93284 6.91931 8.93284H5.33098V10.9625H6.77215C7.80198 10.9625 8.36048 10.6387 8.36048 9.91834Z" fill="#B7B8BA"/>
<path d="M20.6109 11.08V13.036H12.2871V11.08H15.2286V4.99201H12.6991V3.03601H17.5523V11.08H20.6109Z" fill="#B7B8BA"/>
<path d="M30.1056 9.25625C30.1056 11.6391 28.3707 13.2126 26.0326 13.2126C23.6941 13.2126 21.959 11.6393 21.959 9.25625C21.959 6.91825 23.694 5.35925 26.0326 5.35925C28.3705 5.35925 30.1056 6.91825 30.1056 9.25625ZM24.312 9.25625C24.312 10.4626 25.0028 11.2566 26.0177 11.2566C27.0468 11.2566 27.7383 10.4628 27.7383 9.25625C27.7383 8.09475 27.0468 7.31525 26.0177 7.31525C25.0028 7.31525 24.312 8.09475 24.312 9.25625Z" fill="#B7B8BA"/>
<path d="M35.8874 13.2126C33.505 13.2126 31.7695 11.5506 31.7695 9.25625C31.7695 6.97692 33.5052 5.35925 35.8725 5.35925C37.9902 5.35925 39.6815 6.63875 39.7402 8.47725H37.3729C37.2549 7.77142 36.74 7.31509 35.8875 7.31509C34.814 7.31509 34.1375 8.07959 34.1375 9.25609C34.1375 10.4624 34.814 11.2564 35.8875 11.2564C36.7107 11.2564 37.2844 10.8008 37.3874 9.97692H39.7404C39.6964 11.8888 38.0194 13.2126 35.8874 13.2126Z" fill="#B7B8BA"/>
<path d="M45.6645 9.94784H44.0325V13.036H41.709V3.03601H44.0325V7.99184H45.6208L46.9883 5.53601H49.7825L47.6205 8.87434L50.0177 13.036H47.2085L45.6645 9.94784Z" fill="#B7B8BA"/>
<path d="M55.2643 13.2126C52.882 13.2126 51.1465 11.5506 51.1465 9.25631C51.1465 6.97698 52.8821 5.35931 55.2495 5.35931C57.3671 5.35931 59.0585 6.63881 59.1172 8.47731H56.7496C56.6316 7.77148 56.1168 7.31515 55.2643 7.31515C54.1908 7.31515 53.5143 8.07965 53.5143 9.25615C53.5143 10.4625 54.1908 11.2565 55.2643 11.2565C56.0875 11.2565 56.6612 10.8008 56.7642 9.97698H59.1172C59.0727 11.8888 57.3961 13.2126 55.2643 13.2126Z" fill="#B7B8BA"/>
<path d="M68.5703 8.34518V13.036H66.2323V8.96234C66.2323 7.99184 65.7175 7.44768 64.9821 7.44768C64.0853 7.44768 63.4088 8.02118 63.4088 9.27134V13.036H61.0703V3.03601H63.4088V6.65384C63.8795 5.75701 64.7026 5.35951 65.8353 5.35951C67.5705 5.35934 68.5703 6.56584 68.5703 8.34518Z" fill="#B7B8BA"/>
<path d="M70.3184 9.2563C70.3184 6.9183 71.8624 5.34497 73.8777 5.34497C74.7302 5.34497 75.554 5.62464 76.0097 6.37414H76.0247V5.53597H78.3627V13.036H76.0247V12.0798H75.9954C75.5685 12.845 74.8039 13.2126 73.8334 13.2126C71.8924 13.2126 70.3184 11.6093 70.3184 9.2563ZM72.6862 9.2713C72.6862 10.4771 73.3627 11.2566 74.3775 11.2566C75.4067 11.2566 76.0977 10.4771 76.0977 9.30064V9.19764C76.0834 8.06547 75.4069 7.3153 74.3775 7.3153C73.3479 7.3153 72.6862 8.0948 72.6862 9.2713Z" fill="#B7B8BA"/>
<path d="M97.627 8.34529V13.0361H95.2885V8.96245C95.2885 7.99195 94.7741 7.44779 94.0383 7.44779C93.1415 7.44779 92.465 8.02129 92.465 9.27145V13.0361H90.127V5.53612H92.465V6.65395C92.9355 5.75712 93.7593 5.35962 94.8915 5.35962C96.6415 5.35945 97.627 6.56595 97.627 8.34529Z" fill="#B7B8BA"/>
<path d="M88.3478 11.0799V13.0359H80.2598V11.0799H83.1419V7.49189H80.7154V5.53589H85.4806V11.0799H88.3478Z" fill="#B7B8BA"/>
<path d="M85.4791 1.78601H83.1406V4.28601H85.4791V1.78601Z" fill="#B7B8BA"/>
</g>
<defs>
<clipPath id="clip0_7146_4552">
<rect width="100" height="50" fill="white" transform="translate(0.255859 0.536011)"/>
</clipPath>
</defs>
</svg>
