<svg width="158" height="51" viewBox="0 0 158 51" fill="none" xmlns="http://www.w3.org/2000/svg">
<path d="M12.6992 3.93524C17.485 1.14671 23.0614 0.0265026 28.5528 0.750486C34.0443 1.47447 39.1398 4.00165 43.0394 7.93525C46.939 11.8689 49.4218 16.9861 50.0981 22.4837C50.7744 27.9812 49.6058 33.5476 46.7758 38.3091C43.9458 43.0705 39.6147 46.7573 34.4625 48.7906C29.3102 50.8239 23.6286 51.0886 18.3096 49.5431C12.9906 47.9976 8.33551 44.7295 5.0751 40.2518C1.8147 35.7741 0.133652 30.3404 0.295882 24.8038L4.11692 24.9158C3.97949 29.6058 5.4035 34.2086 8.16536 38.0016C10.9272 41.7947 14.8705 44.5631 19.3762 45.8723C23.8819 47.1814 28.6948 46.9572 33.0592 45.2348C37.4236 43.5124 41.0925 40.3894 43.4897 36.356C45.887 32.3226 46.8769 27.6073 46.304 22.9504C45.7312 18.2935 43.628 13.9587 40.3246 10.6265C37.0213 7.29441 32.7049 5.15365 28.0532 4.54037C23.4014 3.92709 18.6777 4.87601 14.6237 7.23815L12.6992 3.93524Z" fill="#B7B8BA"/>
<path d="M41.7818 34.2882C39.8426 37.9436 36.7445 40.8514 32.9737 42.5553C29.2029 44.2591 24.9731 44.6624 20.9483 43.7019C16.9234 42.7414 13.3316 40.4714 10.7366 37.2484C8.14156 34.0254 6.69038 30.0319 6.61087 25.8948C6.53136 21.7577 7.82801 17.7114 10.2973 14.3911C12.7665 11.0707 16.2685 8.66445 20.2534 7.54999C24.2384 6.43554 28.4806 6.67603 32.314 8.23371C36.1475 9.79138 39.3551 12.578 41.4333 16.1562L38.8784 17.64C37.129 14.6279 34.4288 12.2821 31.2018 10.9709C27.9748 9.65962 24.4037 9.45717 21.0492 10.3953C17.6946 11.3335 14.7466 13.3591 12.668 16.1542C10.5894 18.9492 9.49789 22.3554 9.56483 25.838C9.63176 29.3207 10.8534 32.6824 13.0378 35.3955C15.2223 38.1087 18.246 40.0195 21.6341 40.8281C25.0222 41.6366 28.5829 41.2971 31.7571 39.8628C34.9314 38.4286 37.5394 35.9807 39.1718 32.9037L41.7818 34.2882Z" fill="#B7B8BA"/>
<path d="M155.8 22.9972C155.8 22.4447 155.745 22.0073 155.635 21.685C155.525 21.3627 155.342 21.1187 155.088 20.953C154.833 20.7872 154.498 20.6814 154.083 20.6353C153.671 20.5893 153.161 20.5663 152.55 20.5663H149.694C149.151 20.5663 148.693 20.5847 148.32 20.6215C147.951 20.6537 147.646 20.7228 147.404 20.8287C147.163 20.9346 146.976 21.0865 146.845 21.2845C146.713 21.4825 146.618 21.7449 146.558 22.0718C146.499 22.3986 146.465 22.8015 146.457 23.2803C146.448 23.7545 146.444 24.3231 146.444 24.9861C146.444 25.6491 146.448 26.2199 146.457 26.6988C146.469 27.173 146.505 27.5735 146.565 27.9004C146.624 28.2273 146.717 28.4897 146.845 28.6877C146.976 28.8856 147.163 29.0376 147.404 29.1435C147.646 29.2494 147.951 29.3207 148.32 29.3576C148.693 29.3898 149.151 29.4059 149.694 29.4059H152.55C153.025 29.4059 153.434 29.3921 153.777 29.3645C154.121 29.3368 154.414 29.2862 154.655 29.2125C154.897 29.1389 155.092 29.0376 155.24 28.9087C155.389 28.7798 155.503 28.6186 155.584 28.4252C155.669 28.2273 155.726 27.9925 155.756 27.7208C155.785 27.4446 155.8 27.1223 155.8 26.754H157.021C157.021 27.196 156.996 27.5965 156.945 27.9556C156.894 28.3102 156.803 28.6278 156.672 28.9087C156.544 29.1849 156.373 29.4243 156.156 29.6269C155.94 29.8295 155.667 29.9975 155.336 30.131C155.005 30.2599 154.611 30.3543 154.153 30.4142C153.695 30.4786 153.161 30.5109 152.55 30.5109H149.694C148.948 30.5109 148.318 30.4602 147.805 30.3589C147.296 30.2622 146.876 30.1149 146.546 29.9169C146.215 29.7144 145.958 29.4611 145.776 29.1573C145.598 28.8534 145.466 28.4966 145.382 28.0869C145.301 27.6771 145.254 27.2144 145.242 26.6988C145.229 26.1831 145.223 25.6122 145.223 24.9861C145.223 24.3599 145.229 23.789 145.242 23.2734C145.254 22.7578 145.301 22.2951 145.382 21.8853C145.466 21.4755 145.598 21.1187 145.776 20.8149C145.958 20.511 146.215 20.2601 146.546 20.0621C146.876 19.8595 147.296 19.7099 147.805 19.6132C148.318 19.5119 148.948 19.4613 149.694 19.4613H152.55C153.161 19.4613 153.695 19.4935 154.153 19.558C154.611 19.6178 155.005 19.7122 155.336 19.8411C155.667 19.9654 155.94 20.1243 156.156 20.3176C156.373 20.511 156.544 20.7389 156.672 21.0013C156.803 21.2638 156.894 21.5607 156.945 21.8922C156.996 22.2237 157.021 22.592 157.021 22.9972H155.8Z" fill="#B7B8BA"/>
<path d="M141.834 19.6823H143.055V30.2898H141.834V19.6823Z" fill="#B7B8BA"/>
<path d="M138.042 19.6824H139.874L132.954 24.8757L140.077 30.2899H138.245L131.732 25.4281H130.104V30.2899H128.883V19.6824H130.104V24.3232H131.732L138.042 19.6824Z" fill="#B7B8BA"/>
<path d="M121.832 25.649H126.717V26.754H121.832V25.649Z" fill="#B7B8BA"/>
<path d="M116.003 30.4419C115.189 30.4419 114.498 30.382 113.93 30.2623C113.361 30.138 112.899 29.9262 112.543 29.627C112.187 29.3277 111.928 28.9272 111.767 28.4253C111.606 27.9235 111.525 27.2928 111.525 26.5331C111.525 25.6629 111.606 24.9447 111.767 24.3784C111.928 23.8075 112.187 23.3541 112.543 23.018C112.899 22.6819 113.361 22.4471 113.93 22.3136C114.498 22.18 115.189 22.1133 116.003 22.1133C116.584 22.1133 117.087 22.1593 117.511 22.2514C117.939 22.3435 118.304 22.477 118.605 22.6519C118.91 22.8269 119.156 23.0387 119.342 23.2873C119.533 23.5359 119.682 23.7983 119.788 24.0746C119.898 24.3462 119.972 24.6662 120.01 25.0345C120.053 25.4028 120.074 25.7919 120.074 26.2016L119.972 26.6436H112.747C112.747 27.2513 112.802 27.7509 112.912 28.1422C113.022 28.5289 113.205 28.8121 113.459 28.9916C113.713 29.1712 114.048 29.2863 114.464 29.3369C114.879 29.383 115.393 29.406 116.003 29.406C116.563 29.406 117.025 29.3899 117.39 29.3576C117.759 29.3208 118.051 29.2541 118.268 29.1574C118.484 29.0607 118.634 28.9272 118.719 28.7568C118.808 28.5819 118.853 28.3563 118.853 28.08H120.074C120.074 28.5082 120.004 28.8742 119.864 29.1781C119.728 29.4773 119.501 29.7214 119.183 29.9101C118.865 30.0943 118.446 30.2278 117.924 30.3107C117.407 30.3981 116.766 30.4419 116.003 30.4419ZM116.003 23.2182C115.596 23.2182 115.231 23.2274 114.909 23.2459C114.591 23.2643 114.311 23.3057 114.07 23.3702C113.832 23.43 113.629 23.5198 113.459 23.6395C113.289 23.7546 113.152 23.8927 113.046 24.0539C112.944 24.2104 112.867 24.4337 112.817 24.7237C112.77 25.0092 112.747 25.3545 112.747 25.7596H118.853C118.853 25.221 118.8 24.7997 118.694 24.4958C118.588 24.1874 118.42 23.9342 118.191 23.7362C117.962 23.5382 117.667 23.4024 117.307 23.3287C116.947 23.2551 116.512 23.2182 116.003 23.2182Z" fill="#B7B8BA"/>
<path d="M110.377 26.7541C110.377 27.4309 110.326 27.9972 110.224 28.453C110.122 28.9041 109.95 29.2656 109.709 29.5372C109.471 29.8088 109.157 30.0022 108.767 30.1173C108.377 30.2324 107.896 30.2899 107.323 30.2899C106.768 30.2899 106.302 30.2439 105.924 30.1518C105.547 30.0597 105.241 29.9032 105.008 29.6822C104.775 29.4612 104.608 29.1666 104.506 28.7983C104.404 28.4299 104.353 27.9695 104.353 27.4171V23.4254H102.846V22.3343H104.353V20.1589H105.574V22.3343H110.173V23.4254H105.574V27.4171C105.574 27.859 105.604 28.1997 105.663 28.4391C105.727 28.6786 105.827 28.8535 105.962 28.964C106.098 29.0745 106.276 29.1389 106.497 29.1574C106.721 29.1758 106.995 29.185 107.317 29.185C107.572 29.185 107.798 29.1804 107.998 29.1712C108.201 29.162 108.377 29.1343 108.526 29.0883C108.678 29.0377 108.808 28.964 108.914 28.8673C109.02 28.766 109.104 28.6256 109.168 28.4461C109.236 28.2665 109.285 28.0409 109.314 27.7693C109.344 27.493 109.359 27.1546 109.359 26.7541H110.377Z" fill="#B7B8BA"/>
<path d="M100.265 29.1988C100.252 29.2541 100.157 29.3922 99.9786 29.6132C99.8513 29.7789 99.6817 29.9262 99.4697 30.0551C99.2577 30.1795 98.9736 30.2761 98.6174 30.3452C98.2655 30.4189 97.8011 30.4557 97.2245 30.4557C96.457 30.4557 95.8018 30.412 95.2591 30.3245C94.7163 30.2416 94.2732 30.1127 93.9297 29.9377C93.5863 29.7582 93.334 29.5303 93.1728 29.2541C93.0159 28.9778 92.9375 28.6486 92.9375 28.2665C92.9375 27.866 92.9799 27.5276 93.0647 27.2513C93.1538 26.9705 93.281 26.7357 93.4463 26.5469C93.616 26.3581 93.8195 26.2108 94.0569 26.1049C94.2944 25.999 94.5637 25.9185 94.8647 25.8632C95.17 25.808 95.5029 25.7734 95.8633 25.7596C96.2238 25.7458 96.6075 25.7389 97.0146 25.7389C97.5955 25.7389 98.081 25.7665 98.4711 25.8218C98.8612 25.8724 99.1793 25.9392 99.4252 26.0221C99.6754 26.1003 99.8641 26.1855 99.9913 26.2776C100.118 26.3697 100.21 26.4548 100.265 26.5331C100.265 26.0175 100.244 25.5778 100.201 25.2141C100.163 24.8503 100.097 24.5465 100.004 24.3025C99.915 24.0585 99.7983 23.8651 99.6542 23.7224C99.51 23.575 99.3319 23.4645 99.1199 23.3909C98.9121 23.3172 98.6683 23.2712 98.3884 23.2528C98.1086 23.2297 97.7884 23.2182 97.428 23.2182C96.8683 23.2182 96.404 23.2344 96.0351 23.2666C95.6661 23.2942 95.3736 23.3518 95.1573 23.4392C94.9411 23.5267 94.7884 23.6487 94.6994 23.8052C94.6103 23.9572 94.5658 24.1574 94.5658 24.4061H93.3446C93.3446 23.9871 93.4124 23.6326 93.5481 23.3425C93.688 23.0525 93.917 22.8177 94.235 22.6381C94.5573 22.454 94.9792 22.3205 95.5008 22.2376C96.0223 22.1547 96.6647 22.1133 97.428 22.1133C98.1743 22.1133 98.8061 22.18 99.3234 22.3136C99.8407 22.4471 100.258 22.6819 100.576 23.018C100.899 23.3541 101.13 23.8075 101.27 24.3784C101.414 24.9447 101.486 25.6629 101.486 26.5331V30.2899H100.265V29.1988ZM97.428 29.406C97.9665 29.406 98.416 29.3784 98.7764 29.3231C99.1411 29.2679 99.4337 29.185 99.6542 29.0745C99.8747 28.964 100.032 28.8259 100.125 28.6601C100.218 28.4944 100.265 28.301 100.265 28.08C100.265 27.859 100.21 27.6726 100.099 27.5207C99.9934 27.3641 99.8132 27.2375 99.5588 27.1408C99.3086 27.0441 98.9757 26.9751 98.5602 26.9336C98.1446 26.8876 97.6315 26.8646 97.0209 26.8646C96.4103 26.8646 95.9163 26.8761 95.5389 26.8991C95.1658 26.9221 94.8774 26.9751 94.6739 27.058C94.4704 27.1408 94.3326 27.2628 94.2605 27.424C94.1926 27.5851 94.1587 27.8038 94.1587 28.08C94.1587 28.3563 94.1948 28.5819 94.2668 28.7568C94.3432 28.9272 94.4958 29.0607 94.7248 29.1574C94.9538 29.2541 95.2824 29.3208 95.7107 29.3576C96.1432 29.3899 96.7156 29.406 97.428 29.406Z" fill="#B7B8BA"/>
<path d="M84.7011 30.2899H83.4799V25.8011C83.4799 25.3223 83.4502 24.9194 83.3909 24.5925C83.3358 24.261 83.2192 23.994 83.0411 23.7914C82.8672 23.5889 82.6191 23.4438 82.2969 23.3564C81.9789 23.2643 81.5591 23.2182 81.0375 23.2182C80.4651 23.2182 79.9944 23.2712 79.6255 23.3771C79.2566 23.4784 78.9661 23.6234 78.7541 23.8121C78.5421 23.9963 78.3937 24.2196 78.3089 24.482C78.2283 24.7445 78.188 25.0368 78.188 25.3591V30.2899H76.9668V22.3343H78.188V23.5912C78.1923 23.5773 78.2113 23.5313 78.2453 23.453C78.2792 23.3748 78.3385 23.2827 78.4233 23.1768C78.5124 23.0663 78.6311 22.9489 78.7795 22.8246C78.9322 22.7003 79.1272 22.5852 79.3647 22.4793C79.6064 22.3734 79.8969 22.2859 80.2361 22.2169C80.5753 22.1478 80.9781 22.1133 81.4446 22.1133C81.9025 22.1133 82.299 22.1455 82.634 22.21C82.9732 22.2698 83.2616 22.3619 83.499 22.4862C83.7407 22.6059 83.9358 22.7578 84.0842 22.942C84.2368 23.1216 84.3577 23.3287 84.4467 23.5635C84.5188 23.4392 84.6312 23.2942 84.7838 23.1285C84.9365 22.9627 85.1485 22.8039 85.4199 22.6519C85.6955 22.5 86.039 22.3734 86.4503 22.2721C86.8616 22.1662 87.3641 22.1133 87.9577 22.1133C88.4453 22.1133 88.863 22.1501 89.2107 22.2238C89.5627 22.2928 89.8595 22.3987 90.1012 22.5415C90.3429 22.6796 90.5358 22.8522 90.68 23.0594C90.8284 23.2666 90.9408 23.5083 91.0171 23.7845C91.0977 24.0562 91.1507 24.3623 91.1761 24.703C91.2016 25.0391 91.2143 25.4051 91.2143 25.8011V30.2899H89.9931V25.8011C89.9931 25.3223 89.9634 24.9194 89.904 24.5925C89.8489 24.261 89.7323 23.994 89.5542 23.7914C89.3803 23.5889 89.1323 23.4438 88.81 23.3564C88.492 23.2643 88.0722 23.2182 87.5506 23.2182C86.9782 23.2182 86.5075 23.2712 86.1386 23.3771C85.7697 23.4784 85.4792 23.6234 85.2672 23.8121C85.0552 23.9963 84.9068 24.2196 84.822 24.482C84.7414 24.7445 84.7011 25.0368 84.7011 25.3591V30.2899Z" fill="#B7B8BA"/>
<path d="M73.5781 22.3342H74.7993V30.2899H73.5781V22.3342ZM74.7993 21.0083H73.5781V19.6823H74.7993V21.0083Z" fill="#B7B8BA"/>
<path d="M69.7832 19.6823H71.0044V30.2898H69.7832V19.6823Z" fill="#B7B8BA"/>
<path d="M66.3919 22.9972C66.3919 22.4447 66.3368 22.0073 66.2266 21.685C66.1163 21.3627 65.934 21.1187 65.6796 20.953C65.4251 20.7872 65.0902 20.6814 64.6746 20.6353C64.2633 20.5893 63.7523 20.5663 63.1417 20.5663H60.2859C59.7431 20.5663 59.2852 20.5847 58.912 20.6215C58.5431 20.6537 58.2378 20.7228 57.9961 20.8287C57.7544 20.9346 57.5678 21.0865 57.4364 21.2845C57.3049 21.4825 57.2095 21.7449 57.1502 22.0718C57.0908 22.3986 57.0569 22.8015 57.0484 23.2803C57.0399 23.7545 57.0357 24.3231 57.0357 24.9861C57.0357 25.6491 57.0399 26.2199 57.0484 26.6988C57.0611 27.173 57.0972 27.5735 57.1565 27.9004C57.2159 28.2273 57.3092 28.4897 57.4364 28.6877C57.5678 28.8856 57.7544 29.0376 57.9961 29.1435C58.2378 29.2494 58.5431 29.3207 58.912 29.3576C59.2852 29.3898 59.7431 29.4059 60.2859 29.4059H63.1417C63.6166 29.4059 64.0258 29.3921 64.3693 29.3645C64.7128 29.3368 65.0053 29.2862 65.247 29.2125C65.4887 29.1389 65.6838 29.0376 65.8322 28.9087C65.9806 28.7798 66.0951 28.6186 66.1757 28.4252C66.2605 28.2273 66.3177 27.9925 66.3474 27.7208C66.3771 27.4446 66.3919 27.1223 66.3919 26.754H67.6131C67.6131 27.196 67.5877 27.5965 67.5368 27.9556C67.4859 28.3102 67.3948 28.6278 67.2633 28.9087C67.1361 29.1849 66.9644 29.4243 66.7481 29.6269C66.5319 29.8295 66.2584 29.9975 65.9276 30.131C65.5969 30.2599 65.2025 30.3543 64.7446 30.4142C64.2866 30.4786 63.7523 30.5109 63.1417 30.5109H60.2859C59.5396 30.5109 58.9099 30.4602 58.3968 30.3589C57.888 30.2622 57.4682 30.1149 57.1374 29.9169C56.8067 29.7144 56.5501 29.4611 56.3678 29.1573C56.1897 28.8534 56.0583 28.4966 55.9735 28.0869C55.8929 27.6771 55.8463 27.2144 55.8335 26.6988C55.8208 26.1831 55.8145 25.6122 55.8145 24.9861C55.8145 24.3599 55.8208 23.789 55.8335 23.2734C55.8463 22.7578 55.8929 22.2951 55.9735 21.8853C56.0583 21.4755 56.1897 21.1187 56.3678 20.8149C56.5501 20.511 56.8067 20.2601 57.1374 20.0621C57.4682 19.8595 57.888 19.7099 58.3968 19.6132C58.9099 19.5119 59.5396 19.4613 60.2859 19.4613H63.1417C63.7523 19.4613 64.2866 19.4935 64.7446 19.558C65.2025 19.6178 65.5969 19.7122 65.9276 19.8411C66.2584 19.9654 66.5319 20.1243 66.7481 20.3176C66.9644 20.511 67.1361 20.7389 67.2633 21.0013C67.3948 21.2638 67.4859 21.5607 67.5368 21.8922C67.5877 22.2237 67.6131 22.592 67.6131 22.9972H66.3919Z" fill="#B7B8BA"/>
<path d="M39.5247 27.2067C39.5247 28.0951 39.4487 28.8384 39.2966 29.4366C39.1445 30.0289 38.8878 30.5032 38.5266 30.8598C38.1717 31.2163 37.7027 31.4701 37.1197 31.6212C36.5367 31.7723 35.8174 31.8478 34.9618 31.8478C34.1316 31.8478 33.4345 31.7874 32.8705 31.6665C32.3065 31.5457 31.8502 31.3402 31.5016 31.0501C31.153 30.7601 30.9027 30.3733 30.7506 29.8899C30.5985 29.4064 30.5225 28.8021 30.5225 28.0769V22.8376H28.2695V21.4054H30.5225V18.55H32.3476V21.4054H39.2206V22.8376H32.3476V28.0769C32.3476 28.6571 32.392 29.1043 32.4807 29.4185C32.5758 29.7327 32.7247 29.9624 32.9275 30.1074C33.1303 30.2524 33.3965 30.3371 33.726 30.3612C34.0619 30.3854 34.4707 30.3975 34.9523 30.3975C35.3326 30.3975 35.6716 30.3914 35.9695 30.3794C36.2737 30.3673 36.5367 30.331 36.7585 30.2706C36.9866 30.2041 37.1799 30.1074 37.3383 29.9805C37.4968 29.8476 37.6235 29.6633 37.7186 29.4276C37.82 29.1919 37.8929 28.8958 37.9372 28.5392C37.9816 28.1767 38.0038 27.7325 38.0038 27.2067H39.5247Z" fill="#B7B8BA"/>
<path d="M26.2012 21.4055H28.0263V31.8479H26.2012V21.4055ZM28.0263 19.6651H26.2012V17.9247H28.0263V19.6651Z" fill="#B7B8BA"/>
<path d="M18.9267 32.0473C17.7099 32.0473 16.6769 31.9688 15.8277 31.8116C14.9785 31.6485 14.2877 31.3705 13.7554 30.9777C13.223 30.5849 12.8364 30.0591 12.5956 29.4004C12.3548 28.7418 12.2344 27.9139 12.2344 26.9167C12.2344 25.7746 12.3548 24.8319 12.5956 24.0886C12.8364 23.3393 13.223 22.744 13.7554 22.3029C14.2877 21.8617 14.9785 21.5535 15.8277 21.3783C16.6769 21.203 17.7099 21.1154 18.9267 21.1154C19.7949 21.1154 20.5459 21.1758 21.1796 21.2967C21.8197 21.4176 22.3647 21.5928 22.8147 21.8224C23.271 22.0521 23.6385 22.3301 23.9174 22.6564C24.2025 22.9827 24.4244 23.3272 24.5828 23.6897C24.7476 24.0463 24.8585 24.4663 24.9155 24.9497C24.9789 25.4332 25.0106 25.9438 25.0106 26.4816L24.8585 27.0618H14.0595C14.0595 27.8595 14.1419 28.5151 14.3067 29.0288C14.4715 29.5364 14.744 29.9081 15.1242 30.1437C15.5045 30.3794 16.0051 30.5305 16.6262 30.597C17.2473 30.6574 18.0141 30.6876 18.9267 30.6876C19.7632 30.6876 20.454 30.6665 20.999 30.6242C21.5503 30.5758 21.9876 30.4882 22.3108 30.3613C22.634 30.2344 22.859 30.0591 22.9858 29.8356C23.1189 29.6059 23.1854 29.3098 23.1854 28.9472H25.0106C25.0106 29.5092 24.906 29.9896 24.6969 30.3885C24.4941 30.7813 24.155 31.1016 23.6797 31.3493C23.2044 31.5911 22.577 31.7663 21.7975 31.8751C21.0243 31.9899 20.0674 32.0473 18.9267 32.0473ZM18.9267 22.5657C18.3183 22.5657 17.7733 22.5778 17.2916 22.602C16.8163 22.6262 16.398 22.6806 16.0368 22.7652C15.6819 22.8437 15.3777 22.9616 15.1242 23.1187C14.8707 23.2698 14.6648 23.451 14.5063 23.6626C14.3542 23.868 14.2402 24.1611 14.1641 24.5418C14.0944 24.9165 14.0595 25.3697 14.0595 25.9015H23.1854C23.1854 25.1945 23.1062 24.6415 22.9477 24.2427C22.7893 23.8378 22.539 23.5054 22.1968 23.2456C21.8545 22.9857 21.4141 22.8075 20.8754 22.7108C20.3367 22.6141 19.6872 22.5657 18.9267 22.5657Z" fill="#B7B8BA"/>
</svg>
