<svg width="222" height="44" viewBox="0 0 222 44" fill="none" xmlns="http://www.w3.org/2000/svg">
<path d="M46.173 30.7374C44.521 30.7374 43.099 30.4028 41.9071 29.7336C40.7221 29.0575 39.809 28.1026 39.1677 26.8688C38.5264 25.6281 38.2058 24.1608 38.2058 22.467C38.2058 20.815 38.5264 19.3652 39.1677 18.1175C39.809 16.8698 40.7117 15.8974 41.8757 15.2003C43.0468 14.5033 44.4199 14.1548 45.9952 14.1548C47.0547 14.1548 48.0411 14.3256 48.9542 14.6671C49.8743 15.0017 50.6759 15.507 51.359 16.1832C52.049 16.8593 52.5858 17.7097 52.9691 18.7343C53.3525 19.752 53.5442 20.944 53.5442 22.3102V23.5335H44.1167V20.7732H49.3515C49.3515 20.1319 49.2121 19.5638 48.9333 19.0689C48.6544 18.574 48.2676 18.1872 47.7727 17.9083C47.2848 17.6226 46.7167 17.4797 46.0684 17.4797C45.3923 17.4797 44.7928 17.6365 44.2701 17.9502C43.7543 18.2569 43.35 18.6716 43.0572 19.1944C42.1826 20.7355 42.2586 24.0462 43.0468 25.6037C43.3465 26.1822 43.7682 26.6283 44.3119 26.942C44.8556 27.2557 45.5003 27.4125 46.2462 27.4125C46.7411 27.4125 47.1941 27.3428 47.6054 27.2034C48.0167 27.064 48.3687 26.8549 48.6614 26.576C48.9542 26.2972 49.1772 25.9557 49.3306 25.5514L53.4501 25.8232C53.241 26.813 52.8123 27.6774 52.164 28.4162C51.5228 29.1481 50.6933 29.7197 49.6756 30.131C48.6649 30.5352 47.4974 30.7374 46.173 30.7374Z" fill="white" fill-opacity="0.75"/>
<path d="M68.7774 18.5128L64.6997 18.7637C64.63 18.4152 64.4801 18.1015 64.2501 17.8227C64.02 17.5369 63.7168 17.3104 63.3404 17.1431C62.971 16.9688 62.5284 16.8817 62.0126 16.8817C61.3225 16.8817 60.7405 17.0281 60.2665 17.3208C59.7925 17.6066 59.5555 17.99 59.5555 18.471C59.5555 18.8543 59.7089 19.1785 60.0156 19.4433C60.3222 19.7082 60.8485 19.9208 61.5943 20.0811L64.501 20.6666C66.0624 20.9873 67.2264 21.5031 67.9932 22.2141C68.7599 22.9251 69.1433 23.8591 69.1433 25.0162C69.1433 26.0687 68.8331 26.9923 68.2127 27.7869C67.5994 28.5815 66.7559 29.2019 65.6825 29.648C64.616 30.0871 63.3857 30.3067 61.9917 30.3067C59.8657 30.3067 58.1719 29.8641 56.9102 28.9789C55.6556 28.0866 54.9202 26.8738 54.7041 25.3403L59.085 25.1103C59.2174 25.7585 59.5381 26.2534 60.0469 26.595C60.5558 26.9296 61.2075 27.0968 62.0021 27.0968C62.7828 27.0968 63.4101 26.947 63.8841 26.6473C64.3651 26.3406 64.609 25.9467 64.616 25.4658C64.609 25.0615 64.4383 24.7304 64.1037 24.4725C63.7691 24.2076 63.2533 24.0055 62.5563 23.8661L59.7751 23.3119C58.2067 22.9982 57.0392 22.4546 56.2724 21.6808C55.5127 20.9071 55.1328 19.9208 55.1328 18.7219C55.1328 17.6903 55.4116 16.8016 55.9692 16.0557C56.5338 15.3099 57.325 14.7348 58.3427 14.3305C59.3673 13.9263 60.5662 13.7241 61.9394 13.7241C63.9678 13.7241 65.564 14.1528 66.7281 15.0102C67.8991 15.8675 68.5822 17.0351 68.7774 18.5128Z" fill="white" fill-opacity="0.75"/>
<path d="M75.5348 30.306C74.5101 30.306 73.597 30.1283 72.7954 29.7728C71.9938 29.4103 71.3595 28.8771 70.8925 28.1731C70.4324 27.4621 70.2024 26.5769 70.2024 25.5174C70.2024 24.6251 70.3662 23.8758 70.6938 23.2694C71.0214 22.663 71.4675 22.175 72.0321 21.8056C72.5967 21.4362 73.238 21.1574 73.956 20.9692C74.6809 20.781 75.4407 20.6485 76.2353 20.5719C77.1693 20.4743 77.9221 20.3837 78.4937 20.3C79.0653 20.2094 79.48 20.077 79.7379 19.9027C79.9958 19.7284 80.1248 19.4705 80.1248 19.129V19.0662C80.1248 18.4041 79.9157 17.8917 79.4974 17.5293C79.0862 17.1668 78.5007 16.9856 77.7409 16.9856C76.9393 16.9856 76.3015 17.1633 75.8275 17.5188C75.3535 17.8673 75.0399 18.3065 74.8865 18.8362L70.767 18.5016C70.9761 17.5258 71.3874 16.6824 72.0008 15.9714C72.6142 15.2534 73.4053 14.7028 74.3742 14.3194C75.35 13.9291 76.4792 13.7339 77.7618 13.7339C78.654 13.7339 79.5079 13.8384 80.3234 14.0476C81.1459 14.2567 81.8743 14.5808 82.5086 15.0199C83.1499 15.4591 83.6553 16.0237 84.0247 16.7137C84.3941 17.3968 84.5789 18.2159 84.5789 19.1708V30.0028H80.3548V27.7758H80.2293C79.9714 28.2776 79.6264 28.7203 79.1942 29.1036C78.762 29.48 78.2428 29.7763 77.6363 29.9924C77.0299 30.2015 76.3294 30.306 75.5348 30.306ZM76.8103 27.2321C77.4656 27.2321 78.0441 27.1031 78.546 26.8452C79.0478 26.5803 79.4417 26.2249 79.7275 25.7787C80.0132 25.3326 80.1561 24.8273 80.1561 24.2627V22.5584C80.0167 22.649 79.825 22.7327 79.5811 22.8094C79.3441 22.8791 79.0757 22.9453 78.776 23.008C78.4763 23.0638 78.1765 23.1161 77.8768 23.1648C77.5771 23.2067 77.3052 23.245 77.0613 23.2799C76.5385 23.3565 76.0819 23.4785 75.6916 23.6458C75.3012 23.8131 74.998 24.0396 74.7819 24.3254C74.5659 24.6042 74.4578 24.9528 74.4578 25.371C74.4578 25.9774 74.6774 26.4409 75.1165 26.7616C75.5626 27.0752 76.1272 27.2321 76.8103 27.2321Z" fill="white" fill-opacity="0.75"/>
<path fill-rule="evenodd" clip-rule="evenodd" d="M34.3484 22.0145C34.3484 23.5152 34.1043 24.9598 33.653 26.3122C33.2045 26.4903 32.7121 26.6711 32.1772 26.8434C30.2212 27.4736 28.1131 27.8352 26.3464 27.4283L26.3066 27.419L26.2655 27.4115C23.9145 26.9841 22.5457 24.844 22.5333 22.2602C22.521 19.6494 23.8734 17.661 25.8773 17.3176C27.3065 17.1764 28.3243 17.6284 28.9978 18.3509C29.4394 18.8245 29.7905 19.4771 29.9785 20.2836H23.8528V23.7281H33.568L33.6325 22.0717C33.723 19.7663 33.0468 17.5891 31.5874 16.0252C30.0964 14.4269 27.9334 13.6321 25.4494 13.8982L25.4041 13.9031L25.3602 13.9101C20.945 14.6111 19.0041 18.7301 19.022 22.277C19.0398 25.8591 21.0341 29.9411 25.5852 30.7908C27.4972 31.2227 29.4806 31.0516 31.239 30.6683C28.6699 33.7939 24.7389 35.7926 20.3332 35.7926C12.5918 35.7926 6.31665 29.6239 6.31665 22.0145C6.31665 14.405 12.5918 8.23633 20.3332 8.23633C28.0733 8.23633 34.3484 14.405 34.3484 22.0145ZM12.6919 24.2451C13.829 24.2451 14.7507 23.3393 14.7507 22.222C14.7507 21.1047 13.829 20.199 12.6919 20.199C11.5562 20.199 10.6345 21.1047 10.6345 22.222C10.6345 23.3393 11.5562 24.2451 12.6919 24.2451Z" fill="white" fill-opacity="0.75"/>
<path d="M116.587 15.5553C116.39 15.5553 116.183 15.5474 115.966 15.5314C115.748 15.5155 115.546 15.4969 115.36 15.4757C115.175 15.4598 115.021 15.4465 114.899 15.4359C114.782 15.42 114.721 15.4093 114.715 15.404L114.739 12.8481L114.7 9.8781C114.71 9.8781 114.774 9.8728 114.891 9.86218C115.013 9.85156 115.164 9.83829 115.345 9.82237C115.53 9.80644 115.727 9.79583 115.934 9.79052C116.146 9.7799 116.345 9.77459 116.531 9.77459C116.849 9.77459 117.136 9.82237 117.391 9.91792C117.651 10.0082 117.858 10.1648 118.012 10.3877C118.166 10.6053 118.243 10.9106 118.243 11.3034C118.243 11.5529 118.206 11.7572 118.131 11.9165C118.057 12.0757 117.964 12.2005 117.853 12.2907C117.747 12.381 117.643 12.4473 117.542 12.4898C117.447 12.5269 117.378 12.5482 117.335 12.5535L117.463 12.0996V12.9675L117.263 12.4977C117.364 12.5137 117.478 12.5455 117.606 12.5933C117.733 12.6358 117.855 12.7021 117.972 12.7924C118.094 12.8826 118.192 13.01 118.267 13.1746C118.346 13.3338 118.386 13.5355 118.386 13.7797C118.386 14.1354 118.336 14.43 118.235 14.6635C118.134 14.8918 117.996 15.0723 117.821 15.205C117.651 15.3324 117.46 15.4226 117.248 15.4757C117.035 15.5288 116.815 15.5553 116.587 15.5553ZM116.642 14.8148C116.961 14.8148 117.168 14.7325 117.263 14.568C117.364 14.4034 117.415 14.1513 117.415 13.8115C117.415 13.4665 117.332 13.2303 117.168 13.1029C117.009 12.9755 116.786 12.9118 116.499 12.9118H115.217L115.631 12.5694L115.647 15.1652L115.591 14.7432C115.602 14.7432 115.655 14.7511 115.751 14.767C115.851 14.7777 115.979 14.7883 116.133 14.7989C116.292 14.8095 116.462 14.8148 116.642 14.8148ZM116.563 12.1952C116.849 12.1952 117.041 12.1288 117.136 11.9961C117.237 11.8634 117.287 11.6458 117.287 11.3432C117.287 11.0194 117.226 10.7964 117.104 10.6743C116.987 10.5469 116.788 10.4832 116.507 10.4832C116.332 10.4832 116.178 10.4886 116.045 10.4992C115.912 10.5045 115.796 10.5124 115.695 10.5231C115.594 10.5337 115.506 10.5416 115.432 10.5469L115.631 10.117V12.5455L115.217 12.1872L116.563 12.1952ZM121.833 15.5553C121.424 15.5553 121.073 15.481 120.782 15.3324C120.49 15.1837 120.267 14.9263 120.113 14.56C119.964 14.1884 119.89 13.6735 119.89 13.0153V9.8781H120.821V12.7924C120.821 13.2223 120.837 13.5674 120.869 13.8275C120.901 14.0823 120.951 14.276 121.02 14.4087C121.095 14.5361 121.198 14.6211 121.331 14.6635C121.464 14.706 121.634 14.7272 121.841 14.7272C122.048 14.7272 122.217 14.706 122.35 14.6635C122.483 14.6158 122.584 14.5282 122.653 14.4008C122.727 14.2734 122.777 14.0823 122.804 13.8275C122.836 13.5674 122.852 13.2223 122.852 12.7924V9.8781H123.783V12.9436C123.783 13.6284 123.706 14.1592 123.552 14.5361C123.404 14.913 123.184 15.1784 122.892 15.3324C122.605 15.481 122.252 15.5553 121.833 15.5553ZM126.767 15.5553C126.533 15.5553 126.308 15.5288 126.09 15.4757C125.878 15.4279 125.687 15.3695 125.517 15.3005C125.347 15.2315 125.214 15.1731 125.119 15.1254C125.023 15.0723 124.975 15.0457 124.975 15.0457C124.975 15.0457 124.989 15.0086 125.015 14.9343C125.042 14.8599 125.071 14.775 125.103 14.6795C125.14 14.5786 125.172 14.4937 125.198 14.4247C125.23 14.3503 125.246 14.3132 125.246 14.3132C125.246 14.3132 125.294 14.3344 125.389 14.3769C125.485 14.4193 125.612 14.4671 125.772 14.5202C125.936 14.5733 126.117 14.6211 126.313 14.6635C126.515 14.706 126.719 14.7272 126.926 14.7272C127.048 14.7272 127.144 14.7166 127.213 14.6954C127.282 14.6741 127.332 14.6529 127.364 14.6317C127.449 14.5733 127.513 14.491 127.555 14.3848C127.603 14.2787 127.627 14.1354 127.627 13.9549C127.627 13.785 127.579 13.6443 127.484 13.5329C127.393 13.4161 127.271 13.3152 127.117 13.2303C126.963 13.14 126.796 13.0578 126.616 12.9835C126.425 12.8985 126.239 12.8109 126.058 12.7207C125.878 12.6305 125.716 12.5269 125.573 12.4102C125.435 12.2881 125.323 12.1368 125.238 11.9563C125.159 11.7758 125.119 11.5529 125.119 11.2875C125.119 11.0008 125.185 10.746 125.318 10.5231C125.456 10.2948 125.658 10.1143 125.923 9.98162C126.188 9.8436 126.518 9.77459 126.91 9.77459C127.096 9.77459 127.274 9.78521 127.444 9.80644C127.619 9.82768 127.776 9.85156 127.914 9.8781C128.057 9.90465 128.168 9.93119 128.248 9.95773C128.333 9.97896 128.375 9.98958 128.375 9.98958L128.224 10.754C128.224 10.754 128.179 10.746 128.089 10.7301C128.004 10.7142 127.887 10.6956 127.738 10.6743C127.595 10.6478 127.438 10.6266 127.269 10.6106C127.099 10.5947 126.932 10.5868 126.767 10.5868C126.65 10.5868 126.557 10.5947 126.488 10.6106C126.419 10.6266 126.358 10.6531 126.305 10.6903C126.252 10.7221 126.199 10.7832 126.146 10.8734C126.098 10.9583 126.074 11.0831 126.074 11.2476C126.074 11.4122 126.122 11.5529 126.218 11.6697C126.313 11.7811 126.438 11.8767 126.592 11.9563C126.751 12.0359 126.921 12.1129 127.101 12.1872C127.266 12.2615 127.436 12.3438 127.611 12.434C127.786 12.519 127.945 12.6225 128.089 12.7446C128.237 12.8614 128.357 13.0127 128.447 13.1984C128.537 13.3842 128.582 13.6125 128.582 13.8832C128.582 14.2176 128.505 14.5096 128.352 14.7591C128.203 15.0086 127.991 15.205 127.715 15.3483C127.444 15.4863 127.128 15.5553 126.767 15.5553ZM129.897 15.4518L129.929 12.8879L129.897 9.8781H130.836L130.805 12.3465L130.836 15.4438L129.897 15.4518ZM132.506 15.4438V9.8781H133.724L135.738 14.3211H135.77L135.659 9.8781H136.543V15.4438H135.324L133.318 11.0008H133.278L133.389 15.4438H132.506ZM138.209 15.4438V9.8781H141.219V10.6823L138.727 10.6584L139.149 10.2444L139.093 12.5853L138.687 12.227H141.02V13.0073H138.687L139.093 12.6331L139.149 15.0696L138.727 14.6556L141.219 14.6396V15.4438H138.209ZM143.912 15.5553C143.678 15.5553 143.453 15.5288 143.235 15.4757C143.023 15.4279 142.832 15.3695 142.662 15.3005C142.492 15.2315 142.359 15.1731 142.264 15.1254C142.168 15.0723 142.12 15.0457 142.12 15.0457C142.12 15.0457 142.134 15.0086 142.16 14.9343C142.187 14.8599 142.216 14.775 142.248 14.6795C142.285 14.5786 142.317 14.4937 142.343 14.4247C142.375 14.3503 142.391 14.3132 142.391 14.3132C142.391 14.3132 142.439 14.3344 142.535 14.3769C142.63 14.4193 142.757 14.4671 142.917 14.5202C143.081 14.5733 143.262 14.6211 143.458 14.6635C143.66 14.706 143.864 14.7272 144.071 14.7272C144.193 14.7272 144.289 14.7166 144.358 14.6954C144.427 14.6741 144.477 14.6529 144.509 14.6317C144.594 14.5733 144.658 14.491 144.7 14.3848C144.748 14.2787 144.772 14.1354 144.772 13.9549C144.772 13.785 144.724 13.6443 144.629 13.5329C144.538 13.4161 144.416 13.3152 144.262 13.2303C144.108 13.14 143.941 13.0578 143.761 12.9835C143.57 12.8985 143.384 12.8109 143.203 12.7207C143.023 12.6305 142.861 12.5269 142.718 12.4102C142.58 12.2881 142.468 12.1368 142.383 11.9563C142.304 11.7758 142.264 11.5529 142.264 11.2875C142.264 11.0008 142.33 10.746 142.463 10.5231C142.601 10.2948 142.803 10.1143 143.068 9.98162C143.333 9.8436 143.663 9.77459 144.055 9.77459C144.241 9.77459 144.419 9.78521 144.589 9.80644C144.764 9.82768 144.921 9.85156 145.059 9.8781C145.202 9.90465 145.313 9.93119 145.393 9.95773C145.478 9.97896 145.52 9.98958 145.52 9.98958L145.369 10.754C145.369 10.754 145.324 10.746 145.234 10.7301C145.149 10.7142 145.032 10.6956 144.883 10.6743C144.74 10.6478 144.584 10.6266 144.414 10.6106C144.244 10.5947 144.077 10.5868 143.912 10.5868C143.795 10.5868 143.702 10.5947 143.633 10.6106C143.564 10.6266 143.503 10.6531 143.45 10.6903C143.397 10.7221 143.344 10.7832 143.291 10.8734C143.243 10.9583 143.219 11.0831 143.219 11.2476C143.219 11.4122 143.267 11.5529 143.363 11.6697C143.458 11.7811 143.583 11.8767 143.737 11.9563C143.896 12.0359 144.066 12.1129 144.246 12.1872C144.411 12.2615 144.581 12.3438 144.756 12.434C144.931 12.519 145.09 12.6225 145.234 12.7446C145.382 12.8614 145.502 13.0127 145.592 13.1984C145.682 13.3842 145.727 13.6125 145.727 13.8832C145.727 14.2176 145.651 14.5096 145.497 14.7591C145.348 15.0086 145.136 15.205 144.86 15.3483C144.589 15.4863 144.273 15.5553 143.912 15.5553ZM148.356 15.5553C148.122 15.5553 147.897 15.5288 147.679 15.4757C147.467 15.4279 147.276 15.3695 147.106 15.3005C146.936 15.2315 146.803 15.1731 146.708 15.1254C146.612 15.0723 146.564 15.0457 146.564 15.0457C146.564 15.0457 146.577 15.0086 146.604 14.9343C146.631 14.8599 146.66 14.775 146.692 14.6795C146.729 14.5786 146.761 14.4937 146.787 14.4247C146.819 14.3503 146.835 14.3132 146.835 14.3132C146.835 14.3132 146.883 14.3344 146.978 14.3769C147.074 14.4193 147.201 14.4671 147.36 14.5202C147.525 14.5733 147.706 14.6211 147.902 14.6635C148.104 14.706 148.308 14.7272 148.515 14.7272C148.637 14.7272 148.733 14.7166 148.802 14.6954C148.871 14.6741 148.921 14.6529 148.953 14.6317C149.038 14.5733 149.102 14.491 149.144 14.3848C149.192 14.2787 149.216 14.1354 149.216 13.9549C149.216 13.785 149.168 13.6443 149.072 13.5329C148.982 13.4161 148.86 13.3152 148.706 13.2303C148.552 13.14 148.385 13.0578 148.204 12.9835C148.013 12.8985 147.828 12.8109 147.647 12.7207C147.467 12.6305 147.305 12.5269 147.161 12.4102C147.023 12.2881 146.912 12.1368 146.827 11.9563C146.747 11.7758 146.708 11.5529 146.708 11.2875C146.708 11.0008 146.774 10.746 146.907 10.5231C147.045 10.2948 147.246 10.1143 147.512 9.98162C147.777 9.8436 148.106 9.77459 148.499 9.77459C148.685 9.77459 148.863 9.78521 149.033 9.80644C149.208 9.82768 149.364 9.85156 149.502 9.8781C149.646 9.90465 149.757 9.93119 149.837 9.95773C149.922 9.97896 149.964 9.98958 149.964 9.98958L149.813 10.754C149.813 10.754 149.768 10.746 149.678 10.7301C149.593 10.7142 149.476 10.6956 149.327 10.6743C149.184 10.6478 149.027 10.6266 148.857 10.6106C148.688 10.5947 148.52 10.5868 148.356 10.5868C148.239 10.5868 148.146 10.5947 148.077 10.6106C148.008 10.6266 147.947 10.6531 147.894 10.6903C147.841 10.7221 147.788 10.7832 147.735 10.8734C147.687 10.9583 147.663 11.0831 147.663 11.2476C147.663 11.4122 147.711 11.5529 147.806 11.6697C147.902 11.7811 148.027 11.8767 148.181 11.9563C148.34 12.0359 148.51 12.1129 148.69 12.1872C148.855 12.2615 149.025 12.3438 149.2 12.434C149.375 12.519 149.534 12.6225 149.678 12.7446C149.826 12.8614 149.946 13.0127 150.036 13.1984C150.126 13.3842 150.171 13.6125 150.171 13.8832C150.171 14.2176 150.094 14.5096 149.94 14.7591C149.792 15.0086 149.579 15.205 149.303 15.3483C149.033 15.4863 148.717 15.5553 148.356 15.5553ZM114.7 25.4518L114.731 22.8879L114.7 19.8781H115.639L115.607 22.3465L115.639 25.4438L114.7 25.4518ZM117.308 25.4438V19.8781H118.526L120.541 24.3211H120.573L120.461 19.8781H121.345V25.4438H120.127L118.12 21.0008H118.081L118.192 25.4438H117.308ZM124.835 25.5553C124.426 25.5553 124.065 25.4624 123.752 25.2766C123.439 25.0908 123.192 24.7909 123.012 24.3769C122.836 23.9575 122.749 23.4055 122.749 22.7207C122.749 22.1102 122.805 21.6139 122.916 21.2317C123.028 20.8442 123.181 20.5443 123.378 20.332C123.58 20.1196 123.813 19.9737 124.079 19.894C124.349 19.8144 124.641 19.7746 124.954 19.7746C125.087 19.7746 125.246 19.7826 125.432 19.7985C125.618 19.8144 125.801 19.8356 125.982 19.8622C126.167 19.8834 126.313 19.9073 126.42 19.9338L126.316 20.7062C126.263 20.7009 126.175 20.6929 126.053 20.6823C125.936 20.6717 125.809 20.6611 125.671 20.6505C125.533 20.6345 125.4 20.6239 125.273 20.6186C125.151 20.608 125.058 20.6027 124.994 20.6027C124.755 20.6027 124.564 20.616 124.421 20.6425C124.278 20.6637 124.174 20.7115 124.11 20.7858C124.041 20.8548 123.978 20.9636 123.919 21.1123C123.861 21.2609 123.813 21.4679 123.776 21.7334C123.739 21.9935 123.72 22.3305 123.72 22.7446C123.72 23.2648 123.768 23.6788 123.864 23.9867C123.964 24.2893 124.065 24.4857 124.166 24.5759C124.235 24.6343 124.317 24.6795 124.413 24.7113C124.514 24.7378 124.631 24.7511 124.763 24.7511C124.954 24.7511 125.143 24.7299 125.329 24.6874C125.52 24.6449 125.692 24.5945 125.846 24.5361C126 24.4777 126.122 24.4273 126.212 24.3848C126.308 24.3424 126.356 24.3211 126.356 24.3211L126.65 25.0378C126.65 25.0378 126.605 25.0643 126.515 25.1174C126.425 25.1652 126.3 25.2236 126.141 25.2926C125.982 25.3616 125.79 25.4226 125.568 25.4757C125.345 25.5288 125.1 25.5553 124.835 25.5553ZM129.88 25.5553C129.472 25.5553 129.121 25.481 128.829 25.3324C128.537 25.1837 128.314 24.9263 128.16 24.56C128.012 24.1884 127.937 23.6735 127.937 23.0153V19.8781H128.869V22.7924C128.869 23.2223 128.885 23.5674 128.917 23.8275C128.949 24.0823 128.999 24.276 129.068 24.4087C129.142 24.5361 129.246 24.6211 129.379 24.6635C129.511 24.706 129.681 24.7272 129.888 24.7272C130.095 24.7272 130.265 24.706 130.398 24.6635C130.531 24.6158 130.631 24.5282 130.7 24.4008C130.775 24.2734 130.825 24.0823 130.852 23.8275C130.884 23.5674 130.899 23.2223 130.899 22.7924V19.8781H131.831V22.9436C131.831 23.6284 131.754 24.1592 131.6 24.5361C131.451 24.913 131.231 25.1784 130.939 25.3324C130.653 25.481 130.3 25.5553 129.88 25.5553ZM135.388 25.5553C135.192 25.5553 134.985 25.5474 134.767 25.5314C134.549 25.5155 134.348 25.4969 134.162 25.4757C133.976 25.4598 133.822 25.4465 133.7 25.4359C133.583 25.42 133.522 25.4093 133.517 25.404L133.541 22.8481L133.501 19.8781C133.511 19.8781 133.575 19.8728 133.692 19.8622C133.814 19.8516 133.965 19.8383 134.146 19.8224C134.332 19.8064 134.528 19.7958 134.735 19.7905C134.947 19.7799 135.146 19.7746 135.332 19.7746C135.651 19.7746 135.937 19.8224 136.192 19.9179C136.452 20.0082 136.659 20.1648 136.813 20.3877C136.967 20.6053 137.044 20.9106 137.044 21.3034C137.044 21.5529 137.007 21.7572 136.933 21.9165C136.858 22.0757 136.765 22.2005 136.654 22.2907C136.548 22.381 136.444 22.4473 136.343 22.4898C136.248 22.5269 136.179 22.5482 136.136 22.5535L136.264 22.0996V22.9675L136.065 22.4977C136.166 22.5137 136.28 22.5455 136.407 22.5933C136.535 22.6358 136.657 22.7021 136.773 22.7924C136.896 22.8826 136.994 23.01 137.068 23.1746C137.148 23.3338 137.187 23.5355 137.187 23.7797C137.187 24.1354 137.137 24.43 137.036 24.6635C136.935 24.8918 136.797 25.0723 136.622 25.205C136.452 25.3324 136.261 25.4226 136.049 25.4757C135.836 25.5288 135.616 25.5553 135.388 25.5553ZM135.444 24.8148C135.762 24.8148 135.969 24.7325 136.065 24.568C136.166 24.4034 136.216 24.1513 136.216 23.8115C136.216 23.4665 136.134 23.2303 135.969 23.1029C135.81 22.9755 135.587 22.9118 135.3 22.9118H134.018L134.432 22.5694L134.448 25.1652L134.393 24.7432C134.403 24.7432 134.456 24.7511 134.552 24.767C134.653 24.7777 134.78 24.7883 134.934 24.7989C135.093 24.8095 135.263 24.8148 135.444 24.8148ZM135.364 22.1952C135.651 22.1952 135.842 22.1288 135.937 21.9961C136.038 21.8634 136.089 21.6458 136.089 21.3432C136.089 21.0194 136.028 20.7964 135.906 20.6743C135.789 20.5469 135.59 20.4832 135.308 20.4832C135.133 20.4832 134.979 20.4886 134.847 20.4992C134.714 20.5045 134.597 20.5124 134.496 20.5231C134.395 20.5337 134.308 20.5416 134.233 20.5469L134.432 20.117V22.5455L134.018 22.1872L135.364 22.1952ZM137.919 25.4438L139.44 19.8781H140.682L142.202 25.4438H141.247L140.817 23.7319L141.319 24.0823H138.81L139.296 23.7319L138.874 25.4438H137.919ZM139.296 23.7001L138.986 23.2781H141.136L140.825 23.7001L139.989 20.324L140.499 20.7301H139.623L140.132 20.324L139.296 23.7001ZM143.657 25.4438L143.673 20.6584L142.121 20.6823V19.8781H146.142V20.6823L144.565 20.6584L144.589 25.4438H143.657ZM147.011 25.4518L147.043 22.8879L147.011 19.8781H147.95L147.919 22.3465L147.95 25.4438L147.011 25.4518ZM151.554 25.5553C151.257 25.5553 150.976 25.5129 150.71 25.4279C150.445 25.343 150.209 25.1944 150.002 24.982C149.8 24.7697 149.641 24.4751 149.524 24.0982C149.412 23.7213 149.357 23.2383 149.357 22.649C149.357 22.0651 149.412 21.5874 149.524 21.2158C149.641 20.8389 149.8 20.5469 150.002 20.3399C150.209 20.1276 150.445 19.9816 150.71 19.902C150.976 19.8171 151.257 19.7746 151.554 19.7746C151.857 19.7746 152.138 19.8171 152.398 19.902C152.664 19.9816 152.897 20.1276 153.099 20.3399C153.306 20.5469 153.465 20.8389 153.577 21.2158C153.694 21.5874 153.752 22.0651 153.752 22.649C153.752 23.2383 153.694 23.7213 153.577 24.0982C153.465 24.4751 153.306 24.7697 153.099 24.982C152.897 25.1944 152.664 25.343 152.398 25.4279C152.138 25.5129 151.857 25.5553 151.554 25.5553ZM151.554 24.7272C151.767 24.7272 151.947 24.7033 152.096 24.6556C152.25 24.6078 152.377 24.5122 152.478 24.3689C152.579 24.2256 152.653 24.0186 152.701 23.7478C152.749 23.4771 152.773 23.1188 152.773 22.6729C152.773 22.2217 152.749 21.8608 152.701 21.59C152.658 21.314 152.587 21.1043 152.486 20.961C152.39 20.8177 152.263 20.7221 152.104 20.6743C151.95 20.6266 151.767 20.6027 151.554 20.6027C151.337 20.6027 151.151 20.6266 150.997 20.6743C150.843 20.7221 150.716 20.8177 150.615 20.961C150.519 21.1043 150.448 21.314 150.4 21.59C150.352 21.8608 150.328 22.2217 150.328 22.6729C150.328 23.1188 150.352 23.4771 150.4 23.7478C150.453 24.0186 150.527 24.2256 150.623 24.3689C150.724 24.5122 150.851 24.6078 151.005 24.6556C151.159 24.7033 151.342 24.7272 151.554 24.7272ZM155.16 25.4438V19.8781H156.378L158.392 24.3211H158.424L158.313 19.8781H159.197V25.4438H157.978L155.972 21.0008H155.932L156.043 25.4438H155.16ZM116.523 35.5553C116.114 35.5553 115.753 35.4624 115.44 35.2766C115.127 35.0908 114.88 34.7909 114.7 34.3769C114.524 33.9575 114.437 33.4055 114.437 32.7207C114.437 32.1102 114.493 31.6139 114.604 31.2317C114.715 30.8442 114.869 30.5443 115.066 30.332C115.268 30.1196 115.501 29.9737 115.767 29.894C116.037 29.8144 116.329 29.7746 116.642 29.7746C116.775 29.7746 116.934 29.7826 117.12 29.7985C117.306 29.8144 117.489 29.8356 117.67 29.8622C117.855 29.8834 118.001 29.9073 118.107 29.9338L118.004 30.7062C117.951 30.7009 117.863 30.6929 117.741 30.6823C117.624 30.6717 117.497 30.6611 117.359 30.6505C117.221 30.6345 117.088 30.6239 116.961 30.6186C116.839 30.608 116.746 30.6027 116.682 30.6027C116.443 30.6027 116.252 30.616 116.109 30.6425C115.966 30.6637 115.862 30.7115 115.798 30.7858C115.729 30.8548 115.666 30.9636 115.607 31.1123C115.549 31.2609 115.501 31.4679 115.464 31.7334C115.427 31.9935 115.408 32.3305 115.408 32.7446C115.408 33.2648 115.456 33.6788 115.552 33.9867C115.652 34.2893 115.753 34.4857 115.854 34.5759C115.923 34.6343 116.005 34.6795 116.101 34.7113C116.202 34.7378 116.319 34.7511 116.451 34.7511C116.642 34.7511 116.831 34.7299 117.017 34.6874C117.208 34.6449 117.38 34.5945 117.534 34.5361C117.688 34.4777 117.81 34.4273 117.9 34.3848C117.996 34.3424 118.044 34.3211 118.044 34.3211L118.338 35.0378C118.338 35.0378 118.293 35.0643 118.203 35.1174C118.113 35.1652 117.988 35.2236 117.829 35.2926C117.67 35.3616 117.478 35.4226 117.255 35.4757C117.033 35.5288 116.788 35.5553 116.523 35.5553ZM119.625 35.4438V29.8781H122.635V30.6823L120.143 30.6584L120.565 30.2444L120.509 32.5853L120.103 32.227H122.436V33.0073H120.103L120.509 32.6331L120.565 35.0696L120.143 34.6556L122.635 34.6396V35.4438H119.625ZM124.015 35.4438V29.8781H125.233L127.247 34.3211H127.279L127.168 29.8781H128.052V35.4438H126.833L124.827 31.0008H124.787L124.898 35.4438H124.015ZM130.451 35.4438L130.467 30.6584L128.914 30.6823V29.8781H132.935V30.6823L131.358 30.6584L131.382 35.4438H130.451ZM133.804 35.4438L133.844 32.8322L133.812 29.8861C133.86 29.8808 133.955 29.8728 134.099 29.8622C134.242 29.8463 134.409 29.833 134.6 29.8224C134.791 29.8118 134.985 29.8011 135.182 29.7905C135.383 29.7799 135.566 29.7746 135.731 29.7746C136.124 29.7746 136.464 29.833 136.75 29.9498C137.042 30.0665 137.265 30.255 137.419 30.5151C137.573 30.7752 137.65 31.1256 137.65 31.5661C137.65 32.0173 137.552 32.381 137.355 32.657C137.159 32.9277 136.872 33.1135 136.495 33.2144V33.2542L137.73 35.4438H136.671L135.62 33.3418L134.744 33.3099V35.4438H133.804ZM135.787 32.5853C136.148 32.5853 136.387 32.5031 136.503 32.3385C136.62 32.1686 136.679 31.9085 136.679 31.5582C136.679 31.2609 136.655 31.0406 136.607 30.8973C136.559 30.754 136.495 30.6584 136.416 30.6106C136.363 30.5735 136.28 30.5469 136.169 30.531C136.063 30.5151 135.941 30.5071 135.803 30.5071C135.585 30.5071 135.383 30.5151 135.198 30.531C135.017 30.5469 134.866 30.5629 134.744 30.5788L134.736 32.5137C134.906 32.5349 135.083 32.5535 135.269 32.5694C135.455 32.58 135.628 32.5853 135.787 32.5853ZM139.235 35.4438V29.8781H142.245V30.6823L139.753 30.6584L140.175 30.2444L140.119 32.5853L139.713 32.227H142.046V33.0073H139.713L140.119 32.6331L140.175 35.0696L139.753 34.6556L142.245 34.6396V35.4438H139.235Z" fill="white" fill-opacity="0.75"/>
<path d="M185.756 21V15.4343H186.975L188.989 19.8773H189.021L188.91 15.4343H189.793V21H188.575L186.569 16.557H186.529L186.64 21H185.756ZM192.75 21.1035C192.272 21.1035 191.895 21.0053 191.619 20.8089C191.348 20.6125 191.155 20.3338 191.038 19.9728C190.921 19.6066 190.863 19.1713 190.863 18.667C190.863 18.168 190.921 17.7381 191.038 17.3771C191.155 17.0161 191.348 16.7374 191.619 16.541C191.895 16.3393 192.272 16.2385 192.75 16.2385C193.222 16.2385 193.594 16.3393 193.864 16.541C194.141 16.7374 194.334 17.0161 194.446 17.3771C194.563 17.7381 194.621 18.1707 194.621 18.675C194.621 19.1739 194.563 19.6066 194.446 19.9728C194.334 20.3338 194.141 20.6125 193.864 20.8089C193.594 21.0053 193.222 21.1035 192.75 21.1035ZM192.75 20.363C192.93 20.363 193.079 20.3418 193.196 20.2993C193.318 20.2515 193.413 20.1693 193.482 20.0525C193.557 19.9304 193.607 19.7579 193.634 19.5349C193.665 19.312 193.681 19.0227 193.681 18.667C193.681 18.3167 193.665 18.03 193.634 17.8071C193.607 17.5841 193.557 17.4142 193.482 17.2975C193.413 17.1754 193.318 17.0931 193.196 17.0506C193.074 17.0029 192.925 16.979 192.75 16.979C192.569 16.979 192.418 17.0029 192.296 17.0506C192.174 17.0931 192.076 17.1754 192.001 17.2975C191.932 17.4142 191.879 17.5841 191.842 17.8071C191.81 18.03 191.794 18.3167 191.794 18.667C191.794 19.0227 191.81 19.312 191.842 19.5349C191.879 19.7579 191.932 19.9304 192.001 20.0525C192.076 20.1693 192.174 20.2515 192.296 20.2993C192.418 20.3418 192.569 20.363 192.75 20.363ZM195.662 21V16.342H196.236L196.363 16.8277H196.411C196.411 16.8277 196.451 16.7985 196.53 16.7401C196.61 16.6764 196.713 16.6074 196.841 16.5331C196.974 16.4588 197.114 16.3924 197.263 16.334C197.411 16.2703 197.555 16.2385 197.693 16.2385C197.82 16.2385 197.921 16.2491 197.995 16.2703C198.07 16.2915 198.107 16.3022 198.107 16.3022L198.035 17.1303C198.035 17.1303 197.995 17.1276 197.916 17.1223C197.836 17.117 197.757 17.1143 197.677 17.1143C197.534 17.1143 197.39 17.1329 197.247 17.1701C197.109 17.2072 196.981 17.2523 196.865 17.3054C196.753 17.3585 196.66 17.4116 196.586 17.4647V21H195.662ZM200.083 21.1115C199.833 21.1115 199.615 21.0717 199.43 20.992C199.249 20.9071 199.109 20.7505 199.008 20.5223C198.912 20.294 198.864 19.9543 198.864 19.5031V17.2975H198.331V16.7242L198.904 16.6127L199.079 15.5139H199.788V16.5968H200.728V17.3134H199.78V19.5429C199.78 19.7871 199.791 19.9649 199.812 20.0764C199.833 20.1878 199.873 20.2595 199.931 20.2913C199.99 20.3179 200.08 20.3312 200.202 20.3312C200.287 20.3312 200.367 20.3285 200.441 20.3232C200.521 20.3179 200.587 20.3126 200.64 20.3073C200.693 20.302 200.72 20.2993 200.72 20.2993V21.0478C200.72 21.0478 200.659 21.0584 200.536 21.0796C200.414 21.1009 200.263 21.1115 200.083 21.1115ZM201.555 21V14.9724H202.47V17.0108L202.303 16.7162C202.415 16.6631 202.558 16.5994 202.733 16.5251C202.914 16.4508 203.105 16.3844 203.306 16.326C203.508 16.2623 203.705 16.2305 203.896 16.2305C204.214 16.2305 204.458 16.3022 204.628 16.4455C204.803 16.5835 204.925 16.7799 204.994 17.0347C205.063 17.2842 205.098 17.5815 205.098 17.9265V21H204.182V18.1494C204.182 17.8946 204.172 17.6929 204.15 17.5443C204.129 17.3957 204.092 17.2842 204.039 17.2099C203.997 17.1515 203.941 17.1143 203.872 17.0984C203.803 17.0772 203.723 17.0666 203.633 17.0666C203.527 17.0666 203.407 17.0825 203.275 17.1143C203.142 17.1462 203.009 17.1833 202.876 17.2258C202.749 17.2683 202.635 17.3107 202.534 17.3532C202.439 17.3904 202.375 17.4196 202.343 17.4408L202.478 17.2417L202.47 21H201.555ZM208.04 21.1115C207.648 21.1115 207.3 21.0345 206.997 20.8806C206.7 20.7213 206.467 20.4612 206.297 20.1002C206.132 19.7393 206.05 19.2615 206.05 18.667C206.05 18.0406 206.137 17.5523 206.313 17.2019C206.488 16.8516 206.724 16.6021 207.021 16.4534C207.319 16.3048 207.653 16.2305 208.025 16.2305C208.401 16.2305 208.72 16.3022 208.98 16.4455C209.245 16.5835 209.447 16.8144 209.585 17.1382C209.723 17.462 209.792 17.8946 209.792 18.4361V19.0094H206.583L207.005 18.8661C206.995 19.1421 207.003 19.3704 207.029 19.5508C207.056 19.7313 207.093 19.8693 207.141 19.9649C207.194 20.0604 207.247 20.1321 207.3 20.1799C207.364 20.2383 207.443 20.2834 207.539 20.3152C207.634 20.3418 207.754 20.355 207.897 20.355C208.046 20.355 208.2 20.3418 208.359 20.3152C208.523 20.2887 208.677 20.2568 208.821 20.2197C208.964 20.1825 209.091 20.148 209.203 20.1162C209.314 20.079 209.397 20.0525 209.45 20.0365L209.681 20.7293C209.633 20.7505 209.529 20.793 209.37 20.8567C209.211 20.9204 209.017 20.9788 208.789 21.0318C208.561 21.0849 208.311 21.1115 208.04 21.1115ZM207.005 18.5555L206.583 18.3246L209.267 18.2689L208.853 18.5157C208.853 18.1919 208.842 17.9185 208.821 17.6956C208.805 17.4726 208.76 17.3054 208.685 17.194C208.648 17.1462 208.587 17.1011 208.502 17.0586C208.423 17.0108 208.271 16.9869 208.048 16.9869C207.81 16.9869 207.629 17.0135 207.507 17.0666C207.39 17.1143 207.3 17.178 207.236 17.2577C207.061 17.4647 206.984 17.8973 207.005 18.5555ZM210.81 21V16.342H211.384L211.511 16.8277H211.559C211.559 16.8277 211.599 16.7985 211.678 16.7401C211.758 16.6764 211.861 16.6074 211.989 16.5331C212.121 16.4588 212.262 16.3924 212.411 16.334C212.559 16.2703 212.703 16.2385 212.841 16.2385C212.968 16.2385 213.069 16.2491 213.143 16.2703C213.218 16.2915 213.255 16.3022 213.255 16.3022L213.183 17.1303C213.183 17.1303 213.143 17.1276 213.064 17.1223C212.984 17.117 212.904 17.1143 212.825 17.1143C212.681 17.1143 212.538 17.1329 212.395 17.1701C212.257 17.2072 212.129 17.2523 212.013 17.3054C211.901 17.3585 211.808 17.4116 211.734 17.4647V21H210.81ZM213.925 21V16.342H214.522L214.633 16.8038H214.673C214.747 16.7613 214.843 16.7082 214.96 16.6445C215.077 16.5808 215.209 16.5171 215.358 16.4534C215.507 16.3897 215.666 16.3393 215.836 16.3022C216.006 16.2597 216.178 16.2385 216.353 16.2385C216.661 16.2385 216.895 16.3128 217.054 16.4614C217.218 16.61 217.33 16.8118 217.388 17.0666C217.447 17.3214 217.476 17.608 217.476 17.9265V21H216.552V18.1574C216.552 17.8867 216.547 17.6823 216.536 17.5443C216.526 17.401 216.494 17.2922 216.441 17.2178C216.404 17.1595 216.351 17.1223 216.282 17.1064C216.213 17.0851 216.138 17.0745 216.059 17.0745C215.905 17.0745 215.745 17.0984 215.581 17.1462C215.422 17.194 215.276 17.247 215.143 17.3054C215.01 17.3638 214.912 17.4142 214.848 17.4567V21H213.925ZM187.699 31.1035C187.407 31.1035 187.126 31.0664 186.855 30.992C186.59 30.9124 186.354 30.7691 186.147 30.5621C185.945 30.355 185.786 30.0604 185.669 29.6782C185.552 29.296 185.494 28.8024 185.494 28.1972C185.494 27.6027 185.549 27.1196 185.661 26.7481C185.772 26.3712 185.929 26.0792 186.131 25.8722C186.338 25.6652 186.585 25.5245 186.871 25.4502C187.158 25.3706 187.474 25.3307 187.819 25.3307C187.994 25.3307 188.177 25.3414 188.368 25.3626C188.565 25.3785 188.75 25.3998 188.925 25.4263C189.101 25.4528 189.239 25.4767 189.34 25.498L189.236 26.2703C189.082 26.2544 188.878 26.2332 188.623 26.2066C188.373 26.1748 188.089 26.1588 187.771 26.1588C187.516 26.1588 187.314 26.1721 187.166 26.1987C187.022 26.2252 186.914 26.2756 186.839 26.3499C186.749 26.4349 186.664 26.6233 186.585 26.9153C186.51 27.2019 186.473 27.6292 186.473 28.1972C186.473 28.6272 186.497 28.9722 186.545 29.2323C186.592 29.4871 186.646 29.6809 186.704 29.8136C186.762 29.941 186.813 30.0286 186.855 30.0764C186.914 30.1294 187.009 30.1799 187.142 30.2276C187.28 30.2754 187.482 30.2993 187.747 30.2993C187.901 30.2993 188.039 30.2913 188.161 30.2754C188.283 30.2595 188.384 30.2383 188.464 30.2117V28.3087L188.878 28.7466L187.636 28.675V27.9982H189.363V30.7691C189.363 30.7691 189.292 30.7983 189.148 30.8567C189.005 30.9098 188.806 30.9628 188.551 31.0159C188.302 31.0743 188.018 31.1035 187.699 31.1035ZM192.309 31.1115C191.917 31.1115 191.569 31.0345 191.266 30.8806C190.969 30.7213 190.735 30.4612 190.566 30.1002C190.401 29.7393 190.319 29.2615 190.319 28.667C190.319 28.0406 190.406 27.5523 190.581 27.2019C190.757 26.8516 190.993 26.6021 191.29 26.4534C191.587 26.3048 191.922 26.2305 192.293 26.2305C192.67 26.2305 192.989 26.3022 193.249 26.4455C193.514 26.5835 193.716 26.8144 193.854 27.1382C193.992 27.462 194.061 27.8946 194.061 28.4361V29.0094H190.852L191.274 28.8661C191.264 29.1421 191.272 29.3704 191.298 29.5508C191.325 29.7313 191.362 29.8693 191.41 29.9649C191.463 30.0604 191.516 30.1321 191.569 30.1799C191.633 30.2383 191.712 30.2834 191.808 30.3152C191.903 30.3418 192.023 30.355 192.166 30.355C192.315 30.355 192.469 30.3418 192.628 30.3152C192.792 30.2887 192.946 30.2568 193.09 30.2197C193.233 30.1825 193.36 30.148 193.472 30.1162C193.583 30.079 193.666 30.0525 193.719 30.0365L193.95 30.7293C193.902 30.7505 193.798 30.793 193.639 30.8567C193.48 30.9204 193.286 30.9788 193.058 31.0318C192.83 31.0849 192.58 31.1115 192.309 31.1115ZM191.274 28.5555L190.852 28.3246L193.536 28.2689L193.121 28.5157C193.121 28.1919 193.111 27.9185 193.09 27.6956C193.074 27.4726 193.029 27.3054 192.954 27.194C192.917 27.1462 192.856 27.1011 192.771 27.0586C192.692 27.0108 192.54 26.9869 192.317 26.9869C192.078 26.9869 191.898 27.0135 191.776 27.0666C191.659 27.1143 191.569 27.178 191.505 27.2577C191.33 27.4647 191.253 27.8973 191.274 28.5555ZM195.079 31V26.342H195.652L195.78 26.8277H195.828C195.828 26.8277 195.867 26.7985 195.947 26.7401C196.027 26.6764 196.13 26.6074 196.258 26.5331C196.39 26.4588 196.531 26.3924 196.68 26.334C196.828 26.2703 196.972 26.2385 197.11 26.2385C197.237 26.2385 197.338 26.2491 197.412 26.2703C197.487 26.2915 197.524 26.3022 197.524 26.3022L197.452 27.1303C197.452 27.1303 197.412 27.1276 197.333 27.1223C197.253 27.117 197.173 27.1143 197.094 27.1143C196.95 27.1143 196.807 27.1329 196.664 27.1701C196.526 27.2072 196.398 27.2523 196.282 27.3054C196.17 27.3585 196.077 27.4116 196.003 27.4647V31H195.079ZM198.194 31V26.342H198.791L198.902 26.8038H198.934C199.003 26.7613 199.096 26.7109 199.213 26.6525C199.33 26.5888 199.46 26.5251 199.603 26.4614C199.746 26.3924 199.898 26.3367 200.057 26.2942C200.216 26.2517 200.375 26.2305 200.535 26.2305C200.779 26.2305 200.983 26.2862 201.148 26.3977C201.318 26.5039 201.442 26.6499 201.522 26.8356C201.74 26.6976 201.981 26.5623 202.246 26.4296C202.517 26.2969 202.809 26.2305 203.122 26.2305C203.43 26.2305 203.666 26.3048 203.831 26.4534C204.001 26.5968 204.118 26.7958 204.181 27.0506C204.25 27.3054 204.285 27.6027 204.285 27.9424V31H203.361V28.1654C203.361 27.9265 203.356 27.7301 203.345 27.5762C203.335 27.4169 203.303 27.2975 203.25 27.2178C203.202 27.1541 203.138 27.1143 203.059 27.0984C202.984 27.0772 202.915 27.0666 202.852 27.0666C202.74 27.0666 202.623 27.0825 202.501 27.1143C202.379 27.1409 202.262 27.178 202.151 27.2258C202.045 27.2683 201.949 27.3134 201.864 27.3612C201.779 27.4036 201.716 27.4381 201.673 27.4647C201.684 27.5443 201.689 27.6266 201.689 27.7115C201.694 27.7911 201.697 27.8734 201.697 27.9583V31H200.781V28.1494C200.781 27.884 200.773 27.6823 200.757 27.5443C200.747 27.401 200.715 27.2895 200.662 27.2099C200.614 27.1515 200.556 27.1143 200.487 27.0984C200.418 27.0772 200.349 27.0666 200.28 27.0666C200.136 27.0666 199.99 27.0904 199.842 27.1382C199.693 27.1807 199.552 27.2311 199.42 27.2895C199.292 27.3479 199.192 27.3983 199.117 27.4408V31H198.194ZM206.471 31.1035C206.222 31.1035 205.999 31.0451 205.802 30.9283C205.606 30.8116 205.452 30.6417 205.34 30.4187C205.229 30.1958 205.173 29.9251 205.173 29.6066C205.173 29.2244 205.253 28.9245 205.412 28.7068C205.577 28.4892 205.805 28.3352 206.097 28.245C206.394 28.1494 206.742 28.1017 207.14 28.1017H207.872C207.872 27.8522 207.862 27.6531 207.841 27.5045C207.825 27.3505 207.793 27.2364 207.745 27.1621C207.703 27.109 207.642 27.0692 207.562 27.0427C207.488 27.0161 207.379 27.0029 207.235 27.0029C207.039 27.0029 206.84 27.0214 206.638 27.0586C206.437 27.0904 206.251 27.1329 206.081 27.186C205.916 27.2338 205.781 27.2762 205.675 27.3134C205.574 27.3452 205.524 27.3612 205.524 27.3612L205.285 26.6764C205.285 26.6764 205.335 26.6552 205.436 26.6127C205.542 26.5649 205.683 26.5145 205.858 26.4614C206.038 26.403 206.24 26.3526 206.463 26.3101C206.686 26.2623 206.922 26.2385 207.172 26.2385C207.575 26.2385 207.894 26.3101 208.127 26.4534C208.366 26.5915 208.536 26.7905 208.637 27.0506C208.738 27.3054 208.788 27.608 208.788 27.9583V31H208.199L208.079 30.4984H208.032C208 30.5196 207.936 30.5647 207.841 30.6337C207.745 30.6974 207.626 30.7664 207.482 30.8408C207.344 30.9098 207.188 30.9708 207.013 31.0239C206.843 31.077 206.662 31.1035 206.471 31.1035ZM206.694 30.3312C206.864 30.3312 207.031 30.3046 207.196 30.2515C207.366 30.1984 207.512 30.1427 207.634 30.0843C207.756 30.0206 207.835 29.9755 207.872 29.949V28.8501C207.835 28.8448 207.748 28.8369 207.61 28.8263C207.477 28.8103 207.304 28.8024 207.092 28.8024C206.662 28.8024 206.397 28.8475 206.296 28.9377C206.243 28.9855 206.2 29.0651 206.169 29.1766C206.137 29.2828 206.121 29.4181 206.121 29.5827C206.121 29.8428 206.163 30.0339 206.248 30.156C206.338 30.2728 206.487 30.3312 206.694 30.3312ZM210.036 31V26.342H210.634L210.745 26.8038H210.785C210.859 26.7613 210.955 26.7082 211.072 26.6445C211.188 26.5808 211.321 26.5171 211.47 26.4534C211.618 26.3897 211.778 26.3393 211.947 26.3022C212.117 26.2597 212.29 26.2385 212.465 26.2385C212.773 26.2385 213.006 26.3128 213.166 26.4614C213.33 26.61 213.442 26.8118 213.5 27.0666C213.559 27.3214 213.588 27.608 213.588 27.9265V31H212.664V28.1574C212.664 27.8867 212.659 27.6823 212.648 27.5443C212.638 27.401 212.606 27.2922 212.553 27.2178C212.515 27.1595 212.462 27.1223 212.393 27.1064C212.324 27.0851 212.25 27.0745 212.17 27.0745C212.016 27.0745 211.857 27.0984 211.693 27.1462C211.533 27.194 211.387 27.247 211.255 27.3054C211.122 27.3638 211.024 27.4142 210.96 27.4567V31H210.036ZM214.975 32.3218L215.62 30.5621L214.099 26.342H215.063L216.026 29.6066H216.066L217.021 26.342H217.993L216.4 30.7372L215.938 32.3218H214.975Z" fill="white" fill-opacity="0.75"/>
<path opacity="0.5" fill-rule="evenodd" clip-rule="evenodd" d="M99.4194 36.3005V7.6167H100.419V36.3005H99.4194Z" fill="white" fill-opacity="0.75"/>
<path opacity="0.5" fill-rule="evenodd" clip-rule="evenodd" d="M170.595 36.3005V7.6167H171.595V36.3005H170.595Z" fill="white" fill-opacity="0.75"/>
</svg>
