<svg width="148" height="48" viewBox="0 0 148 48" fill="none" xmlns="http://www.w3.org/2000/svg">
<path fill-rule="evenodd" clip-rule="evenodd" d="M8.46832 0.100218L8.52233 7.01526C8.54034 10.8235 8.63036 13.9904 8.70238 14.0706C8.77441 14.1508 11.9973 11.024 22.8725 0.0200436L28.31 0C31.785 0 33.8016 0.0801744 33.8556 0.200436C33.9097 0.300654 30.8488 3.48758 27.0497 7.23574C23.2686 11.0039 20.1537 14.1508 20.1177 14.2109C20.0997 14.271 23.4306 18.7207 27.5538 24.0924C31.659 29.4841 35.026 33.9138 35.026 33.9739C35.026 34.034 32.6493 34.0741 24.4929 34.0541L19.6315 27.6401C16.9668 24.1325 14.6081 21.0057 14.0499 20.2039L8.55834 25.6558V34.0741H0.275954L0.239943 17.1774C0.221938 7.87713 0.275954 0.200436 0.36598 0.120262C0.456006 0.0601308 2.31054 0.0200436 8.46832 0.100218ZM52.9411 0.100218L53.0312 34.0741H44.7488L44.7128 17.1774C44.6948 7.87713 44.7488 0.200436 44.8388 0.120262C44.9288 0.0601308 46.7834 0.0200436 52.9411 0.100218ZM97.2339 0.100218L97.324 8.01744L75.8077 8.11765L75.7177 13.0283H94.8032V20.6449L75.8077 20.7451V26.1569L97.324 26.2571V34.0741H67.6154L67.5794 17.1774C67.5614 7.87713 67.6154 0.200436 67.7054 0.140305C67.7954 0.0601308 74.4754 0.0200436 97.2339 0.100218ZM141.167 0.100218V7.13552L121.937 26.1569L141.437 26.2571V34.0741H109.567V27.2593L129.067 8.11765L109.748 8.01744L109.712 4.12898C109.676 0.881918 109.712 0.22048 109.928 0.140305C110.072 0.0801744 117.166 0.0400872 141.167 0.100218ZM145.308 13.7699C145.596 13.8301 146.118 14.0305 146.46 14.2109C146.802 14.3913 147.216 14.7521 147.378 15.0327C147.558 15.3133 147.793 15.8946 147.901 16.3355C148.045 16.9168 148.027 17.3778 147.883 18.0392C147.757 18.5403 147.414 19.2218 147.108 19.5425C146.802 19.8832 146.208 20.2641 145.758 20.3843C145.272 20.5246 144.696 20.5647 144.318 20.4645C143.975 20.3843 143.453 20.1438 143.165 19.9233C142.895 19.7229 142.517 19.2619 142.337 18.9412C142.157 18.6005 141.959 18.0593 141.887 17.7386C141.833 17.3978 141.851 16.7564 141.959 16.2754C142.067 15.7943 142.409 15.153 142.733 14.7721C143.057 14.4113 143.651 14.0105 144.047 13.8902C144.444 13.7699 145.02 13.7098 145.308 13.7699ZM35.8722 13.6296C36.1963 13.6296 36.7365 13.7499 37.0426 13.8902C37.3667 14.0506 37.9068 14.4915 38.2129 14.8924C38.555 15.3133 38.8611 15.9547 38.9151 16.3756C38.9871 16.7965 38.9691 17.3978 38.9151 17.7386C38.8431 18.0593 38.609 18.6405 38.393 19.0013C38.1769 19.3621 37.6727 19.8231 37.2766 20.0436C36.8805 20.2641 36.2503 20.4445 35.8722 20.4445C35.5121 20.4445 34.8819 20.2641 34.4858 20.0436C34.0897 19.8231 33.5856 19.3421 33.3515 18.9813C33.0454 18.4802 32.9554 18.0593 32.9554 17.0371C32.9554 15.9948 33.0454 15.5939 33.3695 15.0527C33.6036 14.692 34.1437 14.2109 34.5398 14.0105C34.954 13.81 35.5661 13.6296 35.8722 13.6296ZM60.3593 13.6296C60.6834 13.6296 61.1695 13.7299 61.4396 13.8501C61.7277 13.9503 62.1778 14.2911 62.4659 14.5917C62.754 14.8924 63.0961 15.4336 63.2221 15.7743C63.3662 16.1351 63.4742 16.7364 63.4742 17.0771C63.4742 17.4379 63.2941 18.1395 63.0601 18.6405C62.754 19.2819 62.3939 19.6828 61.8357 20.0035C61.4036 20.244 60.7374 20.4445 60.3593 20.4445C59.9992 20.4445 59.369 20.2641 58.9729 20.0436C58.5768 19.8231 58.0726 19.3421 57.8566 18.9813C57.5865 18.5604 57.4244 17.9591 57.3884 17.2375C57.3524 16.3756 57.4244 15.9547 57.7485 15.3333C58.0186 14.8122 58.4507 14.3713 58.9729 14.0706C59.423 13.8301 60.0532 13.6296 60.3593 13.6296ZM58.4687 15.8344C58.1266 16.3957 58.0546 16.6963 58.1447 17.3377C58.1987 17.8388 58.4327 18.3399 58.7388 18.7007C59.0269 19.0013 59.513 19.3421 59.8191 19.4423C60.1972 19.5625 60.6294 19.5826 60.9895 19.4623C61.3136 19.3421 61.7997 18.9813 62.0698 18.6606C62.4839 18.1595 62.5739 17.8388 62.5739 17.0371C62.5739 16.2554 62.4659 15.8946 62.1238 15.4336C61.8717 15.0928 61.3676 14.7521 60.9895 14.6318C60.6294 14.5316 60.2873 14.4314 60.2333 14.4314C60.1792 14.4314 59.8551 14.5917 59.513 14.7922C59.1709 14.9726 58.7028 15.4536 58.4687 15.8344ZM103.806 13.6296C104.148 13.6296 104.796 13.8301 105.228 14.0706C105.786 14.3913 106.146 14.7922 106.453 15.4336C106.687 15.9347 106.867 16.6562 106.867 17.0371C106.867 17.4179 106.687 18.1395 106.453 18.6405C106.146 19.2819 105.786 19.6828 105.228 20.0035C104.778 20.2641 104.13 20.4445 103.716 20.4445C103.302 20.4445 102.69 20.244 102.275 19.9835C101.879 19.7229 101.375 19.1817 101.159 18.7408C100.907 18.2397 100.745 17.5983 100.745 17.0371C100.745 16.4758 100.907 15.8344 101.159 15.3534C101.411 14.8523 101.843 14.3913 102.365 14.0906C102.798 13.8301 103.446 13.6296 103.806 13.6296ZM2.43658 39.6863L1.78839 41.4301C1.44629 42.4122 1.17621 43.3342 1.19422 43.4946C1.23023 43.6549 1.10419 44.156 0.942146 44.597C0.762094 45.0379 0.636057 45.4188 0.636057 45.4388C0.636057 45.4789 0.906135 45.499 1.21222 45.499C1.53632 45.519 2.02246 45.3386 2.29254 45.0981C2.58062 44.8776 2.95873 44.3364 3.15678 43.8955C3.35484 43.4545 3.51689 42.9334 3.51689 42.7329C3.53489 42.5525 3.42686 42.292 3.30083 42.1517C3.12077 41.9512 2.97673 41.9713 2.63463 42.2519C2.22051 42.5726 2.20251 42.5726 2.27453 42.1918C2.31054 41.9713 2.58062 41.7107 2.8507 41.5905C3.1928 41.4501 3.44487 41.4501 3.66093 41.6105C3.84098 41.7508 3.98502 42.1517 4.02103 42.6127C4.05704 43.1939 3.94901 43.6349 3.5709 44.2963C3.2108 44.9177 2.79668 45.3386 2.20251 45.6393C1.50031 46.0201 1.24823 46.0602 0.726083 45.8998C0.383985 45.7796 0.0598912 45.5992 0.00587565 45.499C-0.0481399 45.3787 0.275954 44.1961 0.744089 42.8332C1.37427 40.9491 1.50031 40.3477 1.32025 40.2475C1.19422 40.1674 1.03217 40.0872 0.942146 40.0872C0.870125 40.0872 0.816109 39.987 0.816109 39.8867C0.816109 39.7665 1.17621 39.6863 2.43658 39.6863ZM22.1703 39.6863C22.4043 39.6863 22.6384 39.8066 22.6744 39.9268C22.7104 40.0671 22.6564 40.3477 22.5844 40.5281C22.4944 40.7286 22.2963 40.8889 22.1523 40.8889C22.0082 40.8889 21.8102 40.7286 21.7201 40.5281C21.6481 40.3477 21.6121 40.0671 21.6481 39.9268C21.6841 39.8066 21.9182 39.6863 22.1703 39.6863ZM57.0823 39.6863C57.2264 39.6863 57.3524 39.7264 57.3524 39.7865C57.3524 39.8467 57.2264 40.2275 57.0823 40.6284C56.9203 41.0493 56.8123 41.4101 56.8123 41.4301C56.8123 41.4702 57.0103 41.4902 57.2624 41.4902C57.5145 41.4902 57.7125 41.5704 57.7125 41.6907C57.7125 41.7909 57.4605 41.8911 57.1724 41.8911C56.8663 41.8911 56.6322 41.9312 56.6322 41.9913C56.6322 42.0515 56.3801 42.8131 56.0921 43.695C55.768 44.6571 55.6239 45.3386 55.732 45.3987C55.822 45.4589 56.1461 45.2785 56.4522 44.9979C56.9743 44.5168 56.9923 44.5168 56.8483 44.9377C56.7763 45.1783 56.4702 45.539 56.1821 45.7194C55.876 45.9199 55.5339 46 55.4079 45.9399C55.2818 45.8597 55.1378 45.6793 55.1018 45.539C55.0478 45.4188 55.2458 44.5569 55.5339 43.6349C56.038 42.0715 56.038 41.9913 55.714 41.9312C55.5339 41.9111 55.4079 41.7909 55.4619 41.6907C55.5159 41.5704 55.7139 41.4902 55.912 41.4902C56.1641 41.4902 56.3261 41.2898 56.4702 40.7286C56.5962 40.3277 56.7222 39.9268 56.7583 39.8266C56.7943 39.7464 56.9563 39.6863 57.0823 39.6863ZM69.3259 39.6863C69.4699 39.6863 69.596 39.7264 69.596 39.7865C69.596 39.8467 69.4699 40.2275 69.3259 40.6284C69.1638 41.0493 69.0558 41.4101 69.0558 41.4301C69.0558 41.4702 69.2539 41.4902 69.5059 41.4902C69.758 41.4902 69.9561 41.5704 69.9561 41.6907C69.9561 41.7909 69.776 41.8911 69.5419 41.8911C69.3259 41.8711 69.0558 41.9913 68.9478 42.1316C68.8397 42.2719 68.5336 43.0536 68.2816 43.8353C67.9935 44.7173 67.8675 45.3386 67.9755 45.3987C68.0655 45.4589 68.3536 45.3186 68.6057 45.0981C68.9658 44.7774 69.0558 44.7573 69.0558 44.9979C69.0558 45.1582 68.7857 45.4789 68.4616 45.6793C68.1555 45.8998 67.7774 46 67.6514 45.9399C67.5254 45.8597 67.3813 45.6793 67.3453 45.539C67.2913 45.4188 67.5073 44.5569 67.7954 43.6349C68.1015 42.7329 68.3356 41.9713 68.3356 41.9312C68.3356 41.9111 68.1735 41.8911 67.9755 41.8911C67.7774 41.8911 67.6514 41.7909 67.7054 41.6907C67.7594 41.5704 67.9575 41.4902 68.1555 41.4902C68.4076 41.4902 68.5697 41.2898 68.7137 40.7286C68.8397 40.3277 68.9658 39.9268 69.0018 39.8266C69.0378 39.7464 69.1998 39.6863 69.3259 39.6863ZM77.9144 39.8867C78.2204 39.8867 78.2204 39.9268 77.9684 40.5883C77.8243 40.9691 77.6983 41.3299 77.6983 41.39C77.6983 41.4501 77.9144 41.4902 78.1844 41.4902C78.4725 41.4902 78.7966 41.5905 78.9226 41.7308C79.0487 41.8711 79.1387 42.312 79.1387 42.6928C79.1387 43.0737 78.9407 43.7552 78.7066 44.1961C78.4185 44.7373 78.0044 45.1582 77.4102 45.4789C76.9241 45.7395 76.4199 46.0201 76.2759 46.0802C76.1318 46.1403 75.9518 46.461 75.8438 46.8018C75.6997 47.2828 75.7357 47.4632 75.9698 47.6436C76.1318 47.7839 76.2039 47.9443 76.1138 47.9844C76.0418 48.0445 75.6097 47.9242 75.1236 47.7438C74.6554 47.5634 74.2773 47.343 74.2773 47.2427C74.2773 47.1626 74.4574 47.1024 74.6734 47.1024C75.0335 47.1225 75.1956 46.8218 75.8258 45.058C76.5099 43.1338 76.528 42.9935 76.2039 42.8933C75.9158 42.8131 75.9338 42.7329 76.4199 42.3321C76.78 42.0515 77.0861 41.5303 77.2842 40.8889C77.5002 40.1874 77.6803 39.8867 77.9144 39.8867ZM76.834 43.8353C76.5099 44.7573 76.2579 45.539 76.2579 45.5992C76.2579 45.6593 76.4739 45.5992 76.744 45.4789C77.0321 45.3586 77.4462 45.078 77.6623 44.8375C77.8964 44.597 78.2024 44.156 78.3465 43.8353C78.4905 43.5347 78.5985 43.0737 78.5985 42.7931C78.5985 42.4924 78.4545 42.2118 78.2384 42.0915C78.0404 41.9713 77.8603 41.8911 77.8243 41.8911C77.8063 41.8911 77.6983 41.9713 77.5903 42.0515C77.4822 42.1316 77.1401 42.9334 76.834 43.8353ZM15.8685 40.1874L15.5624 41.0894C15.4003 41.5905 15.1662 42.0114 15.0582 42.0314C14.9322 42.0715 14.8962 41.831 14.9502 41.39C15.0402 40.7085 15.0222 40.6885 14.356 40.5682C13.9239 40.468 13.5278 40.5281 13.2397 40.7085C12.9876 40.8689 12.7716 41.1896 12.7355 41.39C12.6995 41.6706 13.0056 42.0915 13.6898 42.7329C14.284 43.3142 14.7161 43.9155 14.7881 44.2362C14.8422 44.597 14.7881 44.9578 14.6081 45.2384C14.446 45.499 14.0499 45.7996 13.7258 45.9199C13.3297 46.0602 12.9156 46.0602 12.3754 45.9199C11.9613 45.7996 11.4032 45.499 11.1511 45.2384C10.755 44.8776 10.701 44.6772 10.791 44.136C10.863 43.7552 11.0071 43.4946 11.1691 43.4946C11.3672 43.4946 11.4032 43.6349 11.3311 44.0358C11.2411 44.4968 11.3131 44.6571 11.7273 44.9778C12.0153 45.1783 12.5375 45.3987 12.8796 45.4589C13.3657 45.539 13.5998 45.4589 13.9059 45.1181C14.14 44.8976 14.32 44.5769 14.32 44.4366C14.32 44.3164 13.8159 43.695 13.2217 43.0937C12.4835 42.3321 12.1594 41.851 12.1594 41.5303C12.1774 41.2698 12.3754 40.8488 12.6095 40.5682C13.0056 40.1273 13.1677 40.0872 15.8685 40.1874ZM45.487 40.0872C46.1712 40.0872 46.3873 40.1674 46.4773 40.4279C46.5493 40.6284 46.5493 40.9691 46.4953 41.1896C46.4413 41.4101 45.9011 41.9512 45.2889 42.3922C44.6948 42.8332 44.2086 43.1939 44.1906 43.1939C44.1906 43.1939 44.4247 43.5146 45.1989 44.6571L45.7751 44.1761C46.0992 43.9155 46.3332 43.5948 46.2792 43.4946C46.2252 43.3743 46.0272 43.2942 45.8291 43.2942C45.631 43.2942 45.469 43.1939 45.469 43.0937C45.469 42.9735 45.9551 42.8933 46.5493 42.8933C47.1435 42.8933 47.6296 42.9735 47.6296 43.0937C47.6296 43.1939 47.4856 43.2942 47.3055 43.2942C47.1435 43.2741 46.6933 43.695 46.3152 44.1961C45.7571 44.9578 45.6851 45.1382 45.9191 45.2985C46.1172 45.4388 46.3693 45.3987 47.3595 44.8776L46.9994 45.2985C46.8014 45.539 46.4953 45.8196 46.3152 45.9199C46.1112 46.0401 45.8591 46 45.559 45.7996C45.1629 45.539 45.0189 45.539 44.2446 45.7996C43.5965 46.0401 43.2544 46.0602 42.8042 45.8998C42.3901 45.7595 42.192 45.539 42.12 45.1382C42.066 44.7974 42.12 44.4366 42.3001 44.136C42.4621 43.8955 42.8222 43.5347 43.1103 43.3342C43.6145 43.0135 43.6325 42.9334 43.5424 42.0915C43.4524 41.2698 43.4884 41.1495 44.0106 40.6284C44.4787 40.2074 44.7848 40.0872 45.487 40.0872ZM44.0286 42.0915C44.0286 42.4122 44.0646 42.6928 44.1186 42.6928C44.1726 42.6928 44.5327 42.4724 44.9288 42.1918C45.325 41.9111 45.7211 41.5303 45.8291 41.3299C45.9191 41.1495 45.9371 40.909 45.8651 40.8288C45.7931 40.7486 45.523 40.6885 45.2349 40.6885C44.9648 40.6885 44.5867 40.8689 44.3887 41.0894C44.1906 41.3098 44.0286 41.7508 44.0286 42.0915ZM42.8042 44.8976C42.8402 45.2985 42.9663 45.3987 43.4344 45.4388C43.7585 45.4789 44.1906 45.3987 44.3887 45.2985C44.5867 45.1783 44.7488 44.9979 44.7488 44.8976C44.7488 44.7774 44.5687 44.3765 44.3347 43.9957C44.1186 43.6149 43.8845 43.2942 43.8305 43.2942C43.7765 43.2942 43.5064 43.5347 43.2363 43.8353C42.9123 44.2095 42.7682 44.5636 42.8042 44.8976ZM54.9757 40.1874L54.6516 41.0894C54.4716 41.5905 54.2375 42.0114 54.1295 42.0314C54.0035 42.0715 53.9674 41.8711 54.0575 41.4101C54.2015 40.7286 54.2015 40.7085 53.4813 40.5682C52.9772 40.468 52.6171 40.5281 52.311 40.7286C52.0589 40.8689 51.8428 41.1896 51.8068 41.39C51.7708 41.6706 52.0949 42.1517 52.8331 42.8933C53.4633 43.5146 53.9314 44.1761 53.9314 44.3966C53.9494 44.617 53.7874 45.0179 53.6073 45.2985C53.4273 45.5791 52.9952 45.8597 52.6531 45.9399C52.311 46.0401 51.7348 46 51.3567 45.8998C50.9966 45.7796 50.4744 45.499 50.2224 45.2384C49.8263 44.8776 49.7722 44.6772 49.8623 44.136C49.9343 43.7552 50.0783 43.4946 50.2404 43.4946C50.4384 43.4946 50.4744 43.6349 50.4024 44.0358C50.3124 44.4968 50.3844 44.6571 50.7985 44.9778C51.0866 45.1783 51.5547 45.3987 51.8608 45.4589C52.2029 45.519 52.581 45.4388 52.8871 45.2384C53.1752 45.058 53.3913 44.7373 53.3913 44.5369C53.3913 44.3565 52.8871 43.695 52.293 43.0937C51.5548 42.3321 51.2307 41.851 51.2307 41.5303C51.2487 41.2698 51.4467 40.8488 51.6808 40.5682C52.0949 40.1273 52.2389 40.0872 54.9757 40.1874ZM8.00018 41.3299C8.19824 41.37 8.30627 41.6506 8.34228 42.292C8.36029 42.7931 8.27026 43.5948 8.12622 44.0959C7.98218 44.597 7.49604 45.4388 7.08192 45.98C6.64979 46.5212 6.00161 47.1225 5.6235 47.3229C5.26339 47.5434 4.74124 47.7037 4.45316 47.7037C4.18308 47.7238 3.84098 47.5835 3.69694 47.4031C3.46287 47.1024 3.46287 47.0624 3.69694 46.902C3.84098 46.8018 4.12907 46.8218 4.32712 46.9421C4.52518 47.0624 4.88528 47.1024 5.13736 47.0423C5.38943 46.9822 5.76754 46.7617 5.9836 46.5613C6.36171 46.2005 6.36171 46.1804 6.09163 44.2963C5.94759 43.2541 5.74953 42.292 5.6415 42.1918C5.53347 42.0515 5.35342 42.1717 5.11935 42.4924C4.84927 42.8933 4.79526 42.9133 4.88528 42.5926C4.9573 42.3722 5.13736 42.0314 5.2994 41.831C5.46145 41.6305 5.73153 41.4702 5.89357 41.4902C6.07363 41.4902 6.25368 41.6506 6.28969 41.831C6.3437 42.0314 6.45174 42.9534 6.52376 43.8754C6.59578 44.7974 6.72181 45.5791 6.79383 45.6192C6.88386 45.6593 7.04591 45.499 7.18995 45.2384C7.31598 44.9979 7.53205 44.3966 7.65808 43.8955C7.83814 43.2541 7.83814 42.8131 7.7121 42.3922C7.62207 42.0515 7.56806 41.6706 7.62207 41.5303C7.67609 41.39 7.83814 41.2898 8.00018 41.3299ZM66.6971 41.2898C66.7511 41.2898 66.9312 41.37 67.0752 41.4702C67.2373 41.5905 67.2913 41.7708 67.2013 41.9713C67.1292 42.1517 66.8592 42.292 66.5711 42.292C66.301 42.2719 65.9589 42.4122 65.8149 42.5926C65.6708 42.773 65.4548 42.8933 65.3647 42.8933C65.2567 42.8732 65.2927 42.8332 65.4007 42.773C65.5268 42.7329 65.6348 42.5726 65.6168 42.4122C65.6168 42.2519 65.8149 41.9312 66.1029 41.7107C66.373 41.4702 66.6431 41.2898 66.6971 41.2898ZM18.3712 41.4902C18.6593 41.4702 19.0194 41.6105 19.1274 41.7909C19.2534 41.9512 19.3254 42.312 19.2714 42.5926C19.2174 42.8732 18.9653 43.214 18.6773 43.3743C18.4072 43.5146 18.0831 43.6149 17.9571 43.5748C17.849 43.5347 17.741 43.3543 17.741 43.1939C17.741 42.9935 17.903 42.9133 18.2271 42.9334C18.6593 42.9935 18.7313 42.9133 18.7313 42.4924C18.7313 42.1116 18.6232 41.9713 18.2811 41.9312C17.9931 41.8911 17.669 42.0515 17.4169 42.3321C17.1828 42.5926 16.8767 43.0336 16.7327 43.3342C16.5887 43.6549 16.4806 44.2162 16.4806 44.597C16.4806 45.0379 16.5707 45.3386 16.7507 45.3987C16.8947 45.4589 17.1468 45.499 17.2909 45.499C17.4349 45.499 17.903 45.3186 19.0914 44.6772L18.6413 45.1983C18.3892 45.4789 17.903 45.7996 17.5609 45.8998C17.1828 46 16.7687 46 16.5166 45.8798C16.3006 45.7796 16.0305 45.4789 15.9405 45.1983C15.8324 44.9177 15.8144 44.4567 15.8685 44.136C15.9405 43.8353 16.1565 43.2741 16.3726 42.9133C16.5707 42.5325 16.9848 42.0515 17.2909 41.851C17.5789 41.6506 18.0651 41.4902 18.3712 41.4902ZM21.4321 41.5303C21.6841 41.5704 21.7922 41.7308 21.7742 42.0915C21.7742 42.3722 21.5401 43.1939 21.288 43.9356C20.9999 44.7573 20.8739 45.3386 20.9819 45.3987C21.072 45.4589 21.36 45.3186 21.6121 45.0981C21.8642 44.8776 22.0982 44.7573 22.1523 44.8375C22.1883 44.9377 22.0442 45.1983 21.8282 45.4388C21.6121 45.6793 21.306 45.8798 21.162 45.8998C21.0179 45.9199 20.7839 45.9399 20.6578 45.9199C20.5498 45.9199 20.4058 45.7595 20.3517 45.5992C20.2977 45.4388 20.4958 44.5769 20.8019 43.695C21.09 42.8131 21.252 42.0915 21.162 42.0915C21.0539 42.0915 20.7659 42.292 20.0817 42.9935L20.2077 42.5125C20.2977 42.2519 20.5138 41.9111 20.7118 41.7508C20.9099 41.6105 21.234 41.5103 21.4321 41.5303ZM25.5733 41.4902C25.8613 41.4902 26.2214 41.5905 26.3475 41.7308C26.4735 41.8711 26.5635 42.1517 26.5635 42.3321C26.5635 42.5325 26.3835 42.8732 26.1494 43.0937C25.9334 43.3342 25.2852 43.7151 24.709 43.9556C24.0788 44.2162 23.6647 44.5168 23.6647 44.6972C23.6827 44.8576 23.7727 45.1181 23.8988 45.2584C24.0248 45.3987 24.2769 45.499 24.4389 45.499C24.619 45.499 24.9971 45.3586 25.3032 45.1983C25.6093 45.0379 25.8433 44.9778 25.8433 45.0981C25.8433 45.1983 25.6273 45.4589 25.3572 45.6393C25.0871 45.8397 24.619 46 24.2949 46C23.9888 46 23.5927 45.8597 23.4306 45.6994C23.2326 45.499 23.1245 45.1181 23.1426 44.597C23.1426 44.0625 23.3046 43.5414 23.6287 43.0336C23.8988 42.6127 24.3129 42.0915 24.565 41.8911C24.835 41.6706 25.2672 41.4902 25.5733 41.4902ZM23.8448 43.5948C23.8628 43.8153 23.9888 43.8554 24.2589 43.7752C24.4929 43.695 24.8711 43.5347 25.1231 43.3944C25.3752 43.2541 25.6813 42.9935 25.7893 42.8131C25.9154 42.6327 25.9874 42.3521 25.9334 42.1918C25.8793 42.0314 25.6453 41.8911 25.4112 41.8911C25.1411 41.8911 24.763 42.1717 24.4029 42.5926C24.0788 42.9935 23.8267 43.4345 23.8448 43.5948ZM28.6701 41.4902C28.9042 41.4902 29.1203 41.5704 29.1743 41.6907C29.2283 41.7909 29.1023 42.312 28.9042 42.8332C28.6161 43.5948 28.5801 43.8353 28.7602 43.9356C28.9402 44.0358 28.9042 44.0959 28.6701 44.1761C28.5081 44.2562 28.4001 44.3765 28.4541 44.4968C28.5081 44.597 28.4001 44.9578 28.22 45.2985C28.058 45.6192 27.7699 45.8998 27.5898 45.8998C27.3198 45.8998 27.3738 45.6593 27.9499 44.0959C28.328 43.1138 28.5801 42.2318 28.5081 42.1517C28.4181 42.0515 28.202 42.1717 28.004 42.3922C27.8059 42.6127 27.5898 42.7329 27.4998 42.6327C27.4278 42.5525 27.5718 42.2719 27.8059 41.9913C28.04 41.7107 28.4361 41.4902 28.6701 41.4902ZM31.0108 41.4902C31.2449 41.4902 31.461 41.6506 31.515 41.831C31.569 42.0314 31.2809 42.8933 30.8848 43.7351C30.4887 44.617 30.2366 45.3386 30.3446 45.3987C30.4347 45.4589 30.7227 45.2985 30.9748 45.0379C31.2269 44.7974 31.479 44.6571 31.551 44.7573C31.641 44.8375 31.587 44.8976 31.461 44.8976C31.3529 44.8976 31.2629 44.9979 31.2809 45.1181C31.3169 45.2584 31.0828 45.519 30.7948 45.7194C30.3266 46.0602 30.2186 46.0602 29.8945 45.8196C29.5344 45.539 29.5524 45.499 30.2006 44.0157C30.5787 43.1739 30.8848 42.3922 30.8848 42.292C30.8848 42.1717 30.7588 42.0915 30.6147 42.0915C30.4527 42.0915 30.2006 42.2719 30.0205 42.4924C29.8585 42.7329 29.6244 42.8933 29.5344 42.8933C29.4264 42.8933 29.4984 42.7931 29.6604 42.6928C29.8405 42.5726 29.9485 42.3922 29.8945 42.292C29.8405 42.1717 29.9845 41.9512 30.2006 41.7909C30.4347 41.6305 30.7948 41.4902 31.0108 41.4902ZM34.8099 41.4902C35.206 41.4702 35.5661 41.5905 35.6922 41.7909C35.8182 41.9512 35.8902 42.312 35.8362 42.5926C35.7822 42.8933 35.5301 43.214 35.206 43.3944C34.8999 43.5547 34.5759 43.6549 34.4858 43.5948C34.3778 43.5347 34.3058 43.3543 34.3058 43.1939C34.3058 42.9735 34.4318 42.9133 34.7559 42.9935C35.098 43.0737 35.224 42.9935 35.2961 42.6928C35.3501 42.4724 35.3501 42.1918 35.2961 42.0915C35.242 41.9713 35.008 41.8911 34.7739 41.8911C34.5398 41.8911 34.1437 42.1316 33.8917 42.4323C33.6396 42.753 33.2975 43.3342 33.1534 43.7351C32.9914 44.156 32.9014 44.6772 32.9554 44.8976C33.0094 45.1382 33.2615 45.3586 33.5316 45.4188C33.8196 45.499 34.2338 45.4388 34.4858 45.2785C34.7379 45.1382 34.972 45.0179 35.026 45.0179C35.08 44.9979 35.242 44.9177 35.3861 44.8175C35.5301 44.7173 35.4581 44.8776 35.206 45.1783C34.954 45.4789 34.4678 45.7996 34.1257 45.8998C33.7476 46 33.3335 46 33.0814 45.8798C32.8654 45.7796 32.5773 45.4789 32.4512 45.1983C32.2712 44.7774 32.2892 44.5168 32.4872 43.8353C32.6133 43.3543 33.0274 42.6728 33.4415 42.2318C33.9817 41.6506 34.2878 41.4902 34.8099 41.4902ZM38.8971 41.4902C39.1852 41.4902 39.5453 41.5905 39.6713 41.7308C39.7974 41.8711 39.8874 42.1517 39.8874 42.3321C39.8874 42.5325 39.6713 42.8933 39.3832 43.1539C39.1132 43.4144 38.465 43.7752 37.9428 43.9556C37.1506 44.2362 37.0066 44.3765 37.0066 44.7974C37.0066 45.1783 37.1146 45.3186 37.4927 45.4188C37.8168 45.499 38.2129 45.4188 38.627 45.1783C38.9691 44.9778 39.3292 44.7774 39.4373 44.7173C39.5273 44.6772 39.4193 44.8776 39.1672 45.1783C38.9151 45.4789 38.429 45.7996 38.0869 45.8998C37.7088 46 37.2946 46 37.0426 45.8798C36.8265 45.7796 36.5564 45.519 36.4664 45.2985C36.3584 45.078 36.3404 44.597 36.3944 44.2362C36.4484 43.8955 36.6825 43.2741 36.8985 42.9133C37.0966 42.5325 37.5107 42.0515 37.8168 41.851C38.1049 41.6506 38.591 41.4902 38.8971 41.4902ZM37.1686 43.5948C37.1866 43.8153 37.3126 43.8554 37.5827 43.7752C37.8168 43.695 38.1949 43.5347 38.447 43.3944C38.699 43.2541 39.0051 42.9935 39.1132 42.8131C39.2392 42.6327 39.3112 42.3521 39.2572 42.1918C39.2032 42.0314 38.9691 41.8911 38.7351 41.8911C38.465 41.8911 38.0869 42.1717 37.7268 42.5926C37.4027 42.9935 37.1506 43.4345 37.1686 43.5948ZM61.1875 41.5103C61.7457 41.5303 62.2138 41.5905 62.2138 41.6706C62.2138 41.7308 61.9257 42.5325 61.5836 43.4345C61.2415 44.3565 60.9535 45.1382 60.9535 45.1983C60.9535 45.2584 61.0615 45.2985 61.1695 45.2985C61.2956 45.2985 61.6016 45.0981 61.8537 44.8375C62.0878 44.597 62.1958 44.5369 62.0698 44.6972C61.9618 44.8576 61.8897 45.058 61.9437 45.1382C61.9978 45.2384 61.7637 45.4789 61.4396 45.6994C60.9895 46.0201 60.8094 46.0401 60.6294 45.8397C60.4493 45.6393 60.4673 45.3987 60.7014 44.597C60.8634 44.0358 61.0435 43.4545 61.0975 43.2942C61.1335 43.1338 61.2055 42.753 61.2415 42.4323C61.3136 41.9312 61.2596 41.8911 60.7374 41.8911C60.2693 41.8911 59.9812 42.0915 59.387 42.7931C58.8649 43.3944 58.5768 43.9356 58.5048 44.4366C58.4327 44.9778 58.4687 45.2384 58.6308 45.3386C58.7748 45.4188 58.9189 45.499 58.9729 45.499C59.0269 45.499 59.261 45.2985 59.495 45.058C59.8912 44.6371 59.9272 44.6371 59.8551 44.9778C59.8191 45.1783 59.5671 45.539 59.297 45.7796C58.8288 46.1804 58.7928 46.1804 58.3607 45.8397C58.0186 45.5992 57.8926 45.3186 57.8926 44.8375C57.8926 44.4567 58.1086 43.8153 58.4327 43.234C58.7208 42.7129 59.243 42.1116 59.5491 41.8911C59.9812 41.6105 60.4313 41.4902 61.1875 41.5103ZM64.6445 41.5504C64.8786 41.5704 65.0046 41.7308 64.9866 41.9913C64.9686 42.2118 64.8426 42.7129 64.7346 43.0937C64.6085 43.4745 64.4645 43.9356 64.4105 44.0959C64.3564 44.2562 64.3384 44.4567 64.3384 44.5369C64.3564 44.6371 64.2484 44.9578 64.1044 45.2985C63.9603 45.6192 63.7083 45.8998 63.5642 45.8998C63.4202 45.8998 63.2941 45.8397 63.2941 45.7395C63.2941 45.6593 63.5642 44.8375 63.9063 43.8955C64.2484 42.9534 64.4465 42.1717 64.3564 42.1316C64.2664 42.1116 64.0684 42.2118 63.9243 42.3321C63.6903 42.5525 63.6362 42.5325 63.6182 42.2519C63.6002 42.0715 63.7443 41.8109 63.9423 41.7107C64.1224 41.5905 64.4465 41.5103 64.6445 41.5504ZM71.8826 41.4902C72.1167 41.4902 72.3507 41.6105 72.4048 41.7308C72.4588 41.8711 72.2067 42.6528 71.8646 43.4345C71.5045 44.2362 71.2164 45.0379 71.2164 45.1983C71.2164 45.3586 71.2704 45.499 71.3425 45.499C71.4325 45.499 71.7206 45.2384 72.0267 44.8976C72.3147 44.5569 72.6388 44.2963 72.7469 44.3164C72.8369 44.3164 72.8189 44.3565 72.6928 44.4166C72.5848 44.4567 72.4768 44.617 72.4768 44.7373C72.4768 44.8776 72.2967 45.1983 72.0807 45.4388C71.8466 45.6793 71.5405 45.8798 71.3965 45.8998C71.2524 45.9199 71.0184 45.9399 70.8923 45.9199C70.7843 45.9199 70.6403 45.7595 70.5862 45.5992C70.5322 45.4388 70.8203 44.597 71.2164 43.7351C71.6665 42.773 71.8646 42.1116 71.7566 41.9913C71.6485 41.8711 71.3965 42.0114 71.0544 42.4323C70.7483 42.7931 70.4782 42.9935 70.4602 42.8532C70.4422 42.7129 70.6583 42.3521 70.9463 42.0515C71.2344 41.7508 71.6485 41.4902 71.8826 41.4902ZM74.4934 41.4902C74.7634 41.4902 74.7814 41.5704 74.6554 41.9312C74.5654 42.1918 74.2773 42.9735 74.0252 43.695C73.7552 44.4166 73.5571 45.1181 73.5931 45.2785C73.6291 45.4589 73.7912 45.3787 74.1333 45.0179C74.4213 44.7373 74.6734 44.5769 74.7274 44.6972C74.7814 44.7974 74.5294 45.1582 74.1873 45.499C73.8452 45.8196 73.4311 46.0602 73.287 46C73.143 45.9399 73.0169 45.7395 73.0169 45.539C73.0169 45.3586 73.143 44.8375 73.287 44.3966C73.4491 43.9556 73.5391 43.4745 73.4851 43.3342C73.4311 43.214 73.4491 43.0937 73.5571 43.0937C73.6471 43.0937 73.7011 42.9935 73.6471 42.8933C73.5931 42.773 73.7011 42.4122 73.8632 42.0915C74.0432 41.7508 74.3133 41.4902 74.4934 41.4902ZM81.9655 41.4902C82.3436 41.4902 82.7578 41.5905 82.8838 41.7308C83.0098 41.8711 83.0999 42.1517 83.0999 42.3321C83.0999 42.5525 82.9558 42.6928 82.7397 42.6928C82.4697 42.6928 82.3976 42.5926 82.4697 42.292C82.5417 41.9312 82.4877 41.8911 81.8935 41.9312C81.3714 41.9713 81.1913 42.0915 81.1553 42.3922C81.1193 42.6528 81.3353 43.0536 81.8215 43.5347C82.4337 44.156 82.5597 44.4166 82.5057 44.9377C82.4877 45.4589 82.3436 45.6593 81.9295 45.8597C81.4614 46.1003 81.2813 46.1003 80.6151 45.8196C80.201 45.6393 79.7689 45.3186 79.6789 45.0981C79.5708 44.8776 79.4988 44.5168 79.4988 44.2963C79.4988 44.0759 79.5708 43.8955 79.6789 43.8955C79.7689 43.8955 79.9669 44.1761 80.075 44.5369C80.219 44.9177 80.5251 45.2584 80.8492 45.4188C81.1913 45.5791 81.4974 45.5992 81.6954 45.4789C81.8755 45.3787 82.0195 45.1382 82.0195 44.9377C82.0015 44.7573 81.6774 44.2162 81.2993 43.7351C80.9032 43.2741 80.5791 42.753 80.5791 42.5926C80.5791 42.4323 80.7412 42.1116 80.9392 41.8911C81.1733 41.6305 81.5514 41.4902 81.9655 41.4902Z" fill="#B7B8BA"/>
</svg>
