<svg width="40" height="41" viewBox="0 0 40 41" fill="none" xmlns="http://www.w3.org/2000/svg">
<g clip-path="url(#clip0_5754_26306)">
<path d="M26.335 26.839H23.67V22.662C23.67 21.666 23.65 20.384 22.28 20.384C20.891 20.384 20.679 21.468 20.679 22.589V26.839H18.013V18.25H20.573V19.42H20.608C20.966 18.746 21.836 18.033 23.136 18.033C25.836 18.033 26.336 19.811 26.336 22.124V26.839H26.335ZM15.003 17.075C14.7996 17.0753 14.5981 17.0354 14.4101 16.9576C14.2221 16.8798 14.0513 16.7657 13.9075 16.6218C13.7636 16.4779 13.6497 16.3071 13.572 16.119C13.4944 15.931 13.4546 15.7294 13.455 15.526C13.4552 15.2198 13.5462 14.9206 13.7164 14.6661C13.8867 14.4117 14.1286 14.2134 14.4115 14.0965C14.6945 13.9795 15.0057 13.949 15.306 14.0089C15.6062 14.0689 15.882 14.2165 16.0983 14.4331C16.3147 14.6497 16.4619 14.9257 16.5215 15.226C16.581 15.5263 16.5501 15.8375 16.4328 16.1203C16.3154 16.4031 16.1169 16.6447 15.8622 16.8147C15.6075 16.9846 15.3082 17.0752 15.002 17.075H15.003ZM16.339 26.839H13.666V18.25H16.34V26.839H16.339ZM27.67 11.5H12.329C11.593 11.5 11 12.08 11 12.797V28.203C11 28.92 11.594 29.5 12.328 29.5H27.666C28.4 29.5 29 28.92 29 28.203V12.797C29 12.08 28.4 11.5 27.666 11.5H27.669H27.67Z" fill="white"/>
</g>
<rect x="0.5" y="1" width="39" height="39" rx="19.5" stroke="#6E6F73"/>
<defs>
<clipPath id="clip0_5754_26306">
<rect width="24" height="24" fill="white" transform="translate(8 8.5)"/>
</clipPath>
</defs>
</svg>
