<svg width="100" height="28" viewBox="0 0 100 28" fill="none" xmlns="http://www.w3.org/2000/svg">
<g clip-path="url(#clip0_3922_43729)">
<path fill-rule="evenodd" clip-rule="evenodd" d="M21.9761 0.189582C22.0467 0.198329 22.5494 0.976831 23.1051 1.91278C23.6519 2.84874 24.2782 3.96838 24.5075 4.40574C24.728 4.8431 25.0632 5.64784 25.2484 6.19892C25.4248 6.74999 25.6453 7.64221 25.7335 8.16704C25.8482 8.91056 25.8658 9.45288 25.8305 10.5725C25.7952 11.6747 25.7335 12.2345 25.5659 12.9343C25.4424 13.4416 25.2396 14.1501 25.1073 14.5088C24.975 14.8674 24.7192 15.4622 24.534 15.8209C24.3487 16.1795 23.9518 16.853 23.6431 17.3079C23.2991 17.8327 22.7258 18.4975 22.1172 19.1011C21.5792 19.6346 20.8383 20.2644 20.4767 20.5181C20.115 20.763 19.4976 21.1217 19.1095 21.3141C18.7214 21.5065 18.2363 21.7165 18.0246 21.7865C17.7071 21.8827 17.6718 21.9177 17.8041 21.9876C17.9012 22.0401 19.136 22.0839 23.7401 22.1189V26.405H20.9C18.7832 26.405 17.8571 26.37 17.3014 26.2738C16.8868 26.2038 16.19 26.0464 15.7578 25.9239C15.3257 25.8014 14.5318 25.4865 13.9938 25.2329C13.4558 24.9879 12.6443 24.5243 12.1857 24.2182C11.7094 23.8945 10.9508 23.256 10.4216 22.7312C9.87477 22.1888 9.26618 21.4716 8.93101 20.9817C8.6223 20.5269 8.21657 19.8358 8.02253 19.451C7.82848 19.0661 7.51095 18.2963 7.32573 17.7452C7.14933 17.1942 6.92882 16.3107 6.84062 15.7771C6.73478 15.0511 6.70832 14.5 6.7436 13.5466C6.77006 12.8468 6.82298 12.1645 6.91118 11.7534L6.63775 12.0596C6.48781 12.2258 6.15264 12.6981 5.89686 13.1092C5.64107 13.5203 5.03248 14.535 4.54737 15.366C4.07107 16.197 3.63888 16.8705 3.58596 16.8705C3.54186 16.8705 2.7304 16.4244 1.78664 15.8821C0.851699 15.3485 0.0490602 14.8499 0.00495921 14.7974C-0.047962 14.7187 0.322487 14.0014 1.12513 12.6106C1.78664 11.4647 2.5981 10.1789 2.92445 9.74154C3.25962 9.30418 3.81529 8.67438 4.17692 8.33324C4.52972 7.9921 5.13832 7.48476 5.52641 7.1961C5.9145 6.90744 6.67304 6.45259 7.20225 6.18142C7.74028 5.91026 8.5341 5.56912 8.96629 5.42042C9.4073 5.28046 10.0776 5.09677 10.4657 5.01804C10.8538 4.93932 11.6035 4.83435 12.1416 4.79062C12.8031 4.73813 13.4646 4.73813 14.2143 4.79936C14.8405 4.8606 15.7402 5.0093 16.2871 5.14925C16.8251 5.28921 17.5131 5.50789 17.8306 5.6391C18.1481 5.76156 18.6421 5.98899 18.9331 6.12894C19.2242 6.27764 19.7005 6.55755 19.9915 6.75874C20.2826 6.95118 20.6707 7.24859 21.1999 7.72968L21.0676 7.37979C20.997 7.18735 20.8824 6.91619 20.8206 6.76749C20.7589 6.61879 20.1503 5.54288 19.4712 4.37075C18.7832 3.18988 18.2628 2.21019 18.3157 2.20144C18.3686 2.18395 19.1801 1.72034 20.1238 1.16927C21.0676 0.618196 21.9055 0.180835 21.9761 0.189582ZM13.2088 10.1614C12.9266 10.3189 12.4767 10.66 12.2121 10.9224C11.9563 11.1848 11.6212 11.6397 11.48 11.9283C11.3389 12.217 11.1802 12.6719 11.1184 12.9343C11.0655 13.2054 11.039 13.704 11.0655 14.0714C11.092 14.4388 11.1978 14.9636 11.3125 15.2523C11.4271 15.5409 11.6917 16.0133 11.9122 16.302C12.1592 16.6169 12.5473 16.9755 12.8913 17.2029C13.2088 17.4128 13.7204 17.6578 14.0379 17.754C14.3731 17.8502 14.867 17.9202 15.2286 17.9202C15.5903 17.9202 16.0842 17.8502 16.4194 17.754C16.7369 17.6578 17.2308 17.4303 17.5219 17.2379C17.813 17.0455 18.2187 16.6781 18.4304 16.4244C18.6421 16.162 18.9067 15.7596 19.0213 15.5147C19.1272 15.2785 19.2683 14.8674 19.3212 14.6225C19.3741 14.3688 19.4182 13.9752 19.4182 13.7478C19.4182 13.5116 19.3565 13.1005 19.2859 12.8293C19.2154 12.5494 19.0478 12.112 18.9155 11.8671C18.792 11.6134 18.4745 11.1848 18.2275 10.9224C17.9717 10.66 17.5307 10.3189 17.2485 10.1614C16.9574 10.0127 16.4899 9.82027 16.1989 9.75029C15.9078 9.67156 15.4491 9.61033 15.1845 9.61908C14.9199 9.61908 14.4789 9.68031 14.2143 9.75029C13.9497 9.82027 13.4911 10.0127 13.2088 10.1614Z" fill="#5EA09F"/>
<path fill-rule="evenodd" clip-rule="evenodd" d="M93.1374 6.96677C93.6313 6.95803 94.3281 7.01051 94.6809 7.08049C95.0249 7.15047 95.5982 7.30792 95.9334 7.43912C96.2685 7.57033 96.8066 7.85024 97.1241 8.05143C97.4416 8.24387 97.9003 8.6025 98.1384 8.84743C98.3854 9.0836 98.7206 9.47722 98.8793 9.7134C99.0469 9.95832 99.3027 10.3957 99.435 10.7018C99.5673 10.9992 99.7437 11.4891 99.8143 11.7952C99.8848 12.1014 99.9466 12.7574 99.9466 13.2998C99.9466 13.9908 99.8936 14.4544 99.7701 14.9617C99.6643 15.3466 99.4173 15.9764 99.2145 16.3613C98.9587 16.8599 98.6588 17.2535 98.1825 17.7171C97.8121 18.0757 97.3005 18.5043 97.0359 18.6531C96.7713 18.8105 96.295 19.0467 95.9775 19.1691C95.6599 19.3003 95.1219 19.4578 94.7867 19.5278C94.3369 19.624 93.8165 19.6502 92.8904 19.6152C91.8937 19.589 91.4703 19.5365 90.994 19.3791C90.6589 19.2741 90.0591 19.0204 89.671 18.828C89.1594 18.5656 88.7714 18.2769 88.2598 17.7608C87.8717 17.376 87.4219 16.8424 87.2719 16.58C87.1132 16.3175 86.875 15.8015 86.7515 15.4428C86.5575 14.9005 86.5046 14.5856 86.4693 13.6496C86.434 12.7574 86.4605 12.3638 86.5839 11.8127C86.6721 11.4104 86.9103 10.7806 87.1484 10.3257C87.4483 9.73964 87.7129 9.38101 88.1716 8.92615C88.5067 8.58501 89.0271 8.16514 89.3182 7.9902C89.6093 7.81525 90.1297 7.56158 90.4648 7.43912C90.8 7.30792 91.338 7.15047 91.6556 7.08924C91.9731 7.028 92.6346 6.96677 93.1374 6.96677ZM91.5056 9.84461C91.1969 9.99331 90.7559 10.3082 90.5089 10.5444C90.2708 10.7893 89.9533 11.2267 89.8033 11.5328C89.6622 11.8302 89.4946 12.3288 89.4417 12.6437C89.3888 12.9586 89.3711 13.431 89.3976 13.6934C89.4241 13.9558 89.5211 14.3932 89.6093 14.6556C89.6975 14.918 89.8915 15.3116 90.0415 15.5303C90.1914 15.749 90.4825 16.0814 90.6942 16.2651C90.9058 16.4575 91.2851 16.7024 91.5233 16.8161C91.7702 16.9299 92.2465 17.0611 92.5817 17.1223C93.0492 17.1923 93.349 17.1923 93.8165 17.1223C94.1517 17.0698 94.6368 16.9299 94.8749 16.8074C95.1219 16.6937 95.5276 16.405 95.7922 16.1688C96.1098 15.8802 96.3567 15.5565 96.5596 15.1367C96.7272 14.7868 96.8948 14.262 96.9477 13.9121C97.0182 13.4747 97.0182 13.1248 96.9477 12.6875C96.8948 12.3551 96.736 11.8302 96.5949 11.5328C96.4449 11.2267 96.145 10.7893 95.9157 10.5619C95.6776 10.3257 95.2983 10.037 95.0513 9.91459C94.8132 9.79212 94.4516 9.65217 94.2575 9.59969C94.0635 9.55595 93.7283 9.49472 93.5078 9.47722C93.2873 9.45098 92.8727 9.46848 92.5817 9.51221C92.2906 9.5472 91.8055 9.70465 91.5056 9.84461ZM34.3419 7.11548L37.6583 7.15921C40.4102 7.18545 41.0805 7.22044 41.5568 7.3429C41.8743 7.43038 42.3771 7.60532 42.6858 7.75402C42.9857 7.89398 43.4708 8.23512 43.7707 8.51503C44.1411 8.85617 44.3969 9.19731 44.6086 9.62593C44.8026 10.0283 44.9437 10.4832 45.0055 10.938C45.0849 11.4628 45.0849 11.8127 45.0055 12.3376C44.9437 12.8012 44.8114 13.2473 44.6086 13.6496C44.4057 14.052 44.1411 14.4194 43.8148 14.7256C43.5413 14.9792 43.0386 15.3116 42.6858 15.4866C42.333 15.6528 41.7685 15.8539 41.4245 15.9239C40.9923 16.0114 40.2602 16.0551 37.2349 16.0551V19.4665H34.3242L34.3419 7.11548ZM37.2349 13.6934C40.4454 13.6409 40.5689 13.6322 40.9747 13.4222C41.2128 13.3085 41.5127 13.0898 41.6362 12.9324C41.7685 12.7837 41.9184 12.5125 41.9713 12.3201C42.0331 12.1364 42.086 11.8302 42.086 11.6378C42.086 11.4453 42.0331 11.1304 41.9802 10.938C41.9184 10.7456 41.7067 10.4219 41.5127 10.2207C41.2657 9.96707 41.0188 9.81837 40.6748 9.72215C40.3131 9.61718 39.8192 9.58219 38.7167 9.58219H37.2349V13.6934ZM47.9073 7.13297H50.818V17.1048H56.9921V19.4665H47.9073V7.13297ZM59.3736 7.13297H68.8112V9.49472H62.2843V12.1189H68.0174V14.3932H62.2843V17.1048H68.9876V19.4665H59.3736V7.13297ZM72.0747 7.13297H74.5003L80.498 14.3932L80.5421 7.13297H83.4528V19.4665L81.0272 19.4578L75.0295 12.2064L74.9854 19.4665H72.0747V7.13297Z" fill="white"/>
</g>
<defs>
<clipPath id="clip0_3922_43729">
<rect width="100" height="27.4007" fill="white" transform="translate(0 0.189941)"/>
</clipPath>
</defs>
</svg>
