<svg width="184" height="33" viewBox="0 0 184 33" fill="none" xmlns="http://www.w3.org/2000/svg">
<path d="M148.609 21.0636L154.963 20.3837C155.225 21.2426 155.592 21.8569 156.064 22.2267C156.536 22.5964 157.165 22.7813 157.951 22.7813C158.811 22.7813 159.477 22.5726 159.949 22.1551C160.316 21.8449 160.499 21.4573 160.499 20.9921C160.499 20.4672 160.258 20.0617 159.776 19.7754C159.43 19.5726 158.512 19.3221 157.023 19.0239C154.8 18.5826 153.254 18.177 152.384 17.8072C151.524 17.4255 150.795 16.7874 150.197 15.8927C149.61 14.9981 149.317 13.9782 149.317 12.8331C149.317 11.5807 149.636 10.5011 150.276 9.5946C150.916 8.68805 151.796 8.0141 152.918 7.57275C154.04 7.11948 155.545 6.89284 157.432 6.89284C159.424 6.89284 160.892 7.0658 161.836 7.41172C162.79 7.75764 163.582 8.29441 164.211 9.02204C164.85 9.74966 165.38 10.7337 165.799 11.9743L159.728 12.6542C159.571 12.0459 159.309 11.5985 158.942 11.3123C158.439 10.9306 157.831 10.7397 157.118 10.7397C156.394 10.7397 155.865 10.8888 155.529 11.187C155.204 11.4733 155.042 11.8252 155.042 12.2427C155.042 12.7079 155.251 13.0598 155.671 13.2983C156.09 13.5369 157.002 13.7516 158.407 13.9425C160.536 14.2168 162.119 14.5985 163.157 15.0876C164.195 15.5766 164.987 16.2744 165.532 17.181C166.088 18.0875 166.366 19.0835 166.366 20.169C166.366 21.2664 166.072 22.334 165.485 23.3718C164.908 24.4095 163.991 25.2385 162.732 25.8588C161.485 26.4672 159.781 26.7713 157.621 26.7713C154.57 26.7713 152.394 26.2763 151.094 25.2863C149.804 24.2962 148.976 22.8887 148.609 21.0636Z" fill="#B7B8BA"/>
<path d="M135.492 7.32226H141.485V10.4355C142.061 9.08764 142.654 8.1632 143.262 7.66222C143.88 7.1493 144.641 6.89284 145.542 6.89284C146.486 6.89284 147.519 7.22683 148.641 7.89482L146.659 13.0836C145.904 12.7258 145.306 12.5468 144.866 12.5468C144.027 12.5468 143.377 12.9405 142.916 13.7277C142.255 14.8371 141.925 16.9126 141.925 19.9543V26.324H135.492V7.32226Z" fill="#B7B8BA"/>
<path d="M119.78 13.4773L113.662 12.7437C113.893 11.527 114.223 10.5727 114.653 9.88088C115.093 9.17711 115.722 8.56876 116.54 8.05585C117.127 7.68607 117.935 7.39979 118.962 7.19701C119.99 6.99423 121.101 6.89284 122.297 6.89284C124.215 6.89284 125.757 7.01809 126.921 7.26858C128.084 7.50715 129.054 8.0141 129.83 8.78944C130.375 9.32621 130.805 10.0896 131.12 11.0797C131.434 12.0578 131.592 12.9942 131.592 13.8888V22.2803C131.592 23.175 131.639 23.8787 131.733 24.3916C131.838 24.8926 132.058 25.5367 132.394 26.324H126.386C126.145 25.835 125.987 25.4652 125.914 25.2147C125.841 24.9523 125.767 24.5467 125.694 23.998C124.855 24.9165 124.021 25.5725 123.193 25.9662C122.061 26.491 120.745 26.7534 119.245 26.7534C117.253 26.7534 115.738 26.2286 114.7 25.1789C113.673 24.1292 113.159 22.835 113.159 21.2962C113.159 19.8529 113.531 18.6661 114.275 17.7356C115.02 16.8052 116.393 16.1134 118.396 15.6601C120.797 15.1114 122.354 14.7297 123.067 14.515C123.78 14.2884 124.535 13.9961 125.332 13.6383C125.332 12.7437 125.17 12.1174 124.844 11.7596C124.519 11.4017 123.948 11.2228 123.13 11.2228C122.082 11.2228 121.295 11.4137 120.771 11.7954C120.362 12.0936 120.032 12.6542 119.78 13.4773ZM125.332 17.3062C124.451 17.6641 123.534 17.9802 122.58 18.2545C121.28 18.6482 120.456 19.0358 120.11 19.4175C119.754 19.8112 119.576 20.2585 119.576 20.7595C119.576 21.332 119.749 21.8032 120.095 22.173C120.451 22.5308 120.97 22.7097 121.652 22.7097C122.365 22.7097 123.025 22.5129 123.633 22.1193C124.252 21.7257 124.687 21.2485 124.939 20.6879C125.201 20.1153 125.332 19.3758 125.332 18.4692V17.3062Z" fill="#B7B8BA"/>
<path d="M107.355 0.09375V7.32229H110.878V12.6363H107.355V19.3818C107.355 20.1929 107.423 20.7297 107.559 20.9921C107.769 21.3977 108.136 21.6004 108.66 21.6004C109.132 21.6004 109.793 21.4454 110.642 21.1352L111.114 26.163C109.531 26.5567 108.052 26.7535 106.679 26.7535C105.085 26.7535 103.911 26.5209 103.156 26.0557C102.401 25.5905 101.84 24.8867 101.473 23.9444C101.116 22.9901 100.938 21.4513 100.938 19.3281V12.6363H98.5789V7.32229H100.938V0.09375H107.355Z" fill="#B7B8BA"/>
<path d="M78.809 21.0636L85.1631 20.3837C85.4252 21.2426 85.7922 21.8569 86.264 22.2267C86.7358 22.5964 87.3649 22.7813 88.1513 22.7813C89.0111 22.7813 89.6769 22.5726 90.1488 22.1551C90.5157 21.8449 90.6992 21.4573 90.6992 20.9921C90.6992 20.4672 90.4581 20.0617 89.9757 19.7754C89.6297 19.5726 88.7123 19.3221 87.2234 19.0239C85.0005 18.5826 83.454 18.177 82.5837 17.8072C81.7239 17.4255 80.9952 16.7874 80.3975 15.8927C79.8104 14.9981 79.5168 13.9782 79.5168 12.8331C79.5168 11.5807 79.8366 10.5011 80.4762 9.5946C81.1158 8.68805 81.9965 8.0141 83.1184 7.57275C84.2404 7.11948 85.745 6.89284 87.6323 6.89284C89.6245 6.89284 91.0924 7.0658 92.0361 7.41172C92.9902 7.75764 93.7819 8.29441 94.411 9.02204C95.0506 9.74966 95.5801 10.7337 95.9995 11.9743L89.9286 12.6542C89.7713 12.0459 89.5092 11.5985 89.1422 11.3123C88.6389 10.9306 88.0307 10.7397 87.3177 10.7397C86.5943 10.7397 86.0648 10.8888 85.7292 11.187C85.4042 11.4733 85.2417 11.8252 85.2417 12.2427C85.2417 12.7079 85.4514 13.0598 85.8708 13.2983C86.2902 13.5369 87.2024 13.7516 88.6074 13.9425C90.7359 14.2168 92.3192 14.5985 93.3572 15.0876C94.3952 15.5766 95.1869 16.2744 95.7321 17.181C96.2878 18.0875 96.5657 19.0835 96.5657 20.169C96.5657 21.2664 96.2721 22.334 95.6849 23.3718C95.1082 24.4095 94.1908 25.2385 92.9326 25.8588C91.6848 26.4672 89.981 26.7713 87.821 26.7713C84.7699 26.7713 82.5942 26.2763 81.294 25.2863C80.0043 24.2962 79.176 22.8887 78.809 21.0636Z" fill="#B7B8BA"/>
<path d="M58.4577 0.09375H64.8589V9.75566C65.7292 8.72983 66.5942 7.99624 67.454 7.55489C68.3138 7.11355 69.3308 6.89287 70.5052 6.89287C72.2457 6.89287 73.614 7.49525 74.6101 8.70001C75.6167 9.90476 76.12 11.7537 76.12 14.2467V26.324H69.6873V15.8749C69.6873 14.682 69.4934 13.8411 69.1054 13.352C68.7175 12.851 68.1722 12.6006 67.4697 12.6006C66.6938 12.6006 66.0647 12.9346 65.5824 13.6025C65.1001 14.2705 64.8589 15.4693 64.8589 17.1989V26.324H58.4577V0.09375Z" fill="#B7B8BA"/>
<path d="M49.4296 18.8987L55.5162 19.6859C55.1807 21.1292 54.6302 22.3817 53.8648 23.4433C53.0994 24.493 52.119 25.3101 50.9237 25.8946C49.7389 26.4791 48.229 26.7713 46.3941 26.7713C44.6221 26.7713 43.1437 26.5864 41.9589 26.2167C40.7845 25.835 39.7727 25.2266 38.9234 24.3916C38.0741 23.5447 37.4083 22.5547 36.926 21.4215C36.4437 20.2883 36.2025 18.7853 36.2025 16.9126C36.2025 14.9564 36.4961 13.3281 37.0833 12.028C37.5132 11.0737 38.1003 10.2208 38.8448 9.46935C39.5892 8.70594 40.3547 8.13935 41.141 7.76957C42.3888 7.18508 43.9878 6.89284 45.938 6.89284C48.6641 6.89284 50.7402 7.44751 52.1662 8.55684C53.6027 9.66617 54.6092 11.2884 55.1859 13.4236L49.1622 14.3361C48.9735 13.525 48.6274 12.9166 48.1242 12.5111C47.6314 12.0936 46.9656 11.8848 46.1267 11.8848C45.0677 11.8848 44.208 12.3202 43.5474 13.191C42.8973 14.0498 42.5723 15.356 42.5723 17.1094C42.5723 18.672 42.8973 19.8589 43.5474 20.67C44.1975 21.4811 45.0258 21.8867 46.0324 21.8867C46.8712 21.8867 47.5737 21.6422 48.1399 21.1531C48.7166 20.664 49.1465 19.9126 49.4296 18.8987Z" fill="#B7B8BA"/>
<path d="M34.0321 18.6303H21.1982C21.3136 19.7992 21.5914 20.67 22.0318 21.2426C22.6504 22.0656 23.4578 22.4771 24.4539 22.4771C25.083 22.4771 25.6806 22.2982 26.2468 21.9404C26.5929 21.7137 26.9651 21.3141 27.3635 20.7416L33.6703 21.4036C32.7057 23.3121 31.5419 24.6839 30.1788 25.5189C28.8157 26.3419 26.8602 26.7534 24.3123 26.7534C22.1 26.7534 20.3594 26.4016 19.0907 25.6978C17.822 24.9821 16.7683 23.8549 15.9294 22.3161C15.1011 20.7654 14.6869 18.9464 14.6869 16.8589C14.6869 13.8888 15.5205 11.4852 17.1877 9.64828C18.8653 7.81132 21.1773 6.89284 24.1236 6.89284C26.5142 6.89284 28.4016 7.30437 29.7856 8.12742C31.1696 8.95047 32.2234 10.1433 32.9469 11.7059C33.6703 13.2685 34.0321 15.3023 34.0321 17.8072V18.6303ZM27.5208 15.1412C27.395 13.7337 27.0594 12.7258 26.5142 12.1174C25.9795 11.5091 25.2717 11.2049 24.391 11.2049C23.3739 11.2049 22.5613 11.6642 21.9532 12.5826C21.5652 13.1552 21.3188 14.0081 21.214 15.1412H27.5208Z" fill="#B7B8BA"/>
<path d="M8.89913 0.09375V7.32229H12.4222V12.6363H8.89913V19.3818C8.89913 20.1929 8.96729 20.7297 9.10359 20.9921C9.3133 21.3977 9.68028 21.6004 10.2045 21.6004C10.6764 21.6004 11.3369 21.4454 12.1862 21.1352L12.6581 26.163C11.0748 26.5567 9.5964 26.7535 8.22284 26.7535C6.62909 26.7535 5.45476 26.5209 4.69982 26.0557C3.94489 25.5905 3.38393 24.8867 3.01695 23.9444C2.66046 22.9901 2.48221 21.4513 2.48221 19.3281V12.6363H0.123047V7.32229H2.48221V0.09375H8.89913Z" fill="#B7B8BA"/>
<path d="M167.309 26.7714H183.882V32.0938H167.309V26.7714Z" fill="#B7B8BA"/>
</svg>
